<svg width="458" height="465" viewBox="0 0 458 465" fill="none" xmlns="http://www.w3.org/2000/svg">
<rect x="-14.3357" y="-56" width="573.336" height="486.98" fill="url(#paint0_linear_51_1540)"/>
<path d="M318.723 197.828C303.852 197.828 300.048 195.4 300.048 195.4C300.048 195.4 302.355 195.557 306.375 195.557C314.694 195.557 330.35 194.883 348.067 190.753C340.832 191.348 333.391 191.61 325.925 191.61C277.511 191.61 228.113 180.764 228.113 180.764C239.086 170.769 250.505 167.235 261.765 167.235C283.083 167.235 303.821 179.9 319.825 185.346C323.539 186.609 326.706 187.12 329.495 187.12C335.279 187.12 339.427 184.927 343.402 182.734C347.377 180.548 351.18 178.355 356.278 178.355C359.808 178.355 363.959 179.403 369.217 182.237C378.116 171.267 390.655 169.061 399.297 169.061C399.866 169.061 400.419 169.068 400.952 169.087L400.812 186.832C384.405 189.941 369.263 192.631 357.793 194.339C339.981 196.997 327.448 197.828 318.723 197.828ZM404.032 186.223L403.831 169.264C407.103 169.552 409.15 170.056 409.15 170.056C425.188 158.052 452.589 165.14 483.362 157.829L483.359 158.196C460.544 168.976 420.779 176.379 420.779 176.379L483.284 167.647L483.264 170.239C460.753 174.958 430.923 181.091 404.032 186.223ZM488.704 169.1L488.678 166.888L518.821 162.679C518.821 162.679 506.7 165.31 488.704 169.1Z" fill="url(#paint1_linear_51_1540)"/>
<path d="M221.68 258.654C199.95 258.654 195.774 255.238 195.774 255.238C195.774 255.238 202.327 256.479 211.832 256.479C215.297 256.479 219.153 256.314 223.227 255.864C192.319 254.714 156.026 242.087 156.026 242.087C161.651 238.053 167.166 236.507 172.487 236.507C185.903 236.507 198.079 246.337 207.601 250.894C210.281 252.175 212.501 252.641 214.446 252.641C217.035 252.641 219.133 251.815 221.165 250.989C223.197 250.163 225.162 249.337 227.486 249.337C229.76 249.337 232.376 250.127 235.734 252.479C240.285 248.034 245.779 246.867 250.296 246.867C255.296 246.867 259.098 248.297 259.098 248.297C262.534 246.306 266.603 245.725 271.206 245.725C274.431 245.725 277.917 246.01 281.63 246.295C285.343 246.58 289.283 246.866 293.416 246.865C296.427 246.865 299.54 246.714 302.741 246.301C289.292 251.098 265.271 252.659 265.271 252.659L321.594 251.556C321.594 251.556 256.203 257.756 228.499 258.551C226.052 258.622 223.785 258.654 221.68 258.654Z" fill="url(#paint2_linear_51_1540)"/>
<path d="M471.044 105.262C467.412 105.262 463.499 105.203 459.278 105.086C411.484 103.711 298.671 93.0157 298.671 93.0157L395.838 94.9204C395.838 94.9204 354.399 92.2303 331.196 83.9503C336.717 84.6637 342.089 84.9256 347.281 84.9256C354.412 84.9256 361.209 84.4347 367.616 83.9438C374.022 83.4463 380.037 82.9554 385.6 82.9554C393.541 82.9554 400.563 83.9568 406.489 87.3932C406.489 87.3932 413.049 84.9256 421.675 84.9256C429.468 84.9256 438.946 86.9415 446.797 94.6062C452.589 90.5546 457.104 89.1866 461.026 89.1866C465.036 89.1866 468.427 90.6135 471.932 92.0404C475.436 93.4608 479.056 94.8877 483.522 94.8877C483.634 94.8877 483.745 94.8877 483.856 94.8877L483.777 105.007C479.98 105.171 475.749 105.262 471.044 105.262ZM487.945 104.791L487.823 94.4622C490.088 94.0171 492.569 93.1924 495.332 91.8768C511.76 84.0157 532.765 67.0565 555.911 67.0565C556.051 67.0565 556.191 67.0565 556.332 67.0565V85.9401L515.735 99.3713C515.735 99.3713 510.815 103.397 487.945 104.791Z" fill="url(#paint3_linear_51_1540)"/>
<path d="M293.111 211.875C265.165 211.875 234.626 206.272 215.572 198.024C215.572 198.024 266.789 209.59 307.512 209.59C314.264 209.59 320.722 209.269 326.616 208.53C316.675 210.84 305.132 211.875 293.111 211.875Z" fill="url(#paint4_linear_51_1540)"/>
<path d="M315.504 331.269L298.75 331.907L306.275 340.528L313.876 337.095L315.473 331.557" fill="#B68041"/>
<path d="M194.65 303.891C194.65 303.891 214.174 276.662 216.72 275.934C219.266 275.206 220.824 276.954 220.824 276.954L227.189 270.11L230.302 270.547C230.302 270.547 235.254 266.324 236.103 266.324C236.951 266.324 255.91 285.398 255.91 285.398C255.91 285.398 260.579 282.633 261.428 282.778C262.276 282.924 282.225 304.766 282.649 305.202C283.075 305.638 293.402 323.548 293.402 323.548C293.402 323.548 303.306 335.925 305.145 335.925C306.984 335.925 314.766 331.703 315.473 331.557C316.18 331.411 320.566 333.013 320.566 333.013C320.566 333.013 323.961 340.148 327.639 345.535C331.318 350.923 337.968 364.027 337.968 364.027L171.73 336.798L194.65 303.891Z" fill="#754E22"/>
<path d="M125.993 366.113C125.993 366.113 183.861 321.222 217.113 320.778C250.366 320.333 319.423 340.36 410.112 417.25C389.815 432.806 341.139 428.482 341.139 428.482L125.993 367.89" fill="url(#paint5_linear_51_1540)"/>
<path d="M349.706 435.113V435.048H326.429V434.982H303.089V434.917H279.748V434.851H256.344V434.786H233.004V434.721H209.663V434.655H186.323V434.59H162.919V434.524H139.578V434.459H116.238V434.393H92.8337V434.328H69.4932V434.262H46.1528V434.197H22.7487V434.131H-0.591722V434.066H-17V313.565H-15.9824V313.499H-14.4561V313.434H-12.7389V313.368H-10.7038V313.303H-8.15988V313.237H-4.72559V313.172H1.7614V313.106H9.64755V313.172H15.4986V313.237H17.4065V313.303H18.4877V313.368H19.5688V313.434H20.5864V313.499H21.5404V313.565H22.24V313.63H22.9395V313.695H23.6391V313.761H24.3387V313.826H25.0383V313.892H25.6106V313.957H26.183V314.023H26.6918V314.088H27.2006V314.154H27.773V314.219H28.2818V314.285H28.8541V314.35H29.2993V314.415H29.7445V314.481H30.1897V314.546H30.6349V314.612H31.0801V314.677H31.5253V314.743H31.9704V314.808H32.4156V314.874H32.8608V314.939H33.2424V315.005H33.624V315.07H34.0056V315.135H34.3872V315.201H34.7688V315.266H35.1503V315.332H35.5319V315.397H35.9135V315.463H36.2951V315.528H36.6767V315.594H37.0583V315.659H37.3763V315.725H37.6943V315.79H38.0122V315.855H38.3938V315.921H38.7118V315.986H39.0298V316.052H39.3478V316.117H39.7294V316.183H40.0474V316.248H40.3654V316.314H40.6834V316.379H41.065V316.445H41.3193V316.51H41.6373V316.575H41.9553V316.641H42.2733V316.706H42.5277V316.772H42.8457V316.837H43.1637V316.903H43.4817V316.968H43.7361V317.034H44.0541V317.099H44.372V317.165H44.6264V317.23H44.9444V317.295H45.2624V317.361H45.5168V317.426H45.7712V317.492H46.0892V317.557H46.3436V317.623H46.598V317.688H46.916V317.754H47.1704V317.819H47.4248V317.885H47.7427V317.95H47.9971V318.015H48.2515V318.081H48.5695V318.146H48.8239V318.212H49.0783V318.277H49.3327V318.343H49.5871V318.408H49.8415V318.474H50.0959V318.539H50.3503V318.605H50.6047V318.67H50.859V318.735H51.177V318.801H51.4314V318.866H51.6858V318.932H51.9402V318.997H52.1946V319.063H52.449V319.128H52.7034V319.194H52.9578V319.259H53.1486V319.325H53.403V319.39H53.6574V319.455H53.9117V319.521H54.1661V319.586H54.3569V319.652H54.6113V319.717H54.8657V319.783H55.1201V319.848H55.3109V319.914H55.5653V319.979H55.8197V320.045H56.0741V320.11H56.2649V320.175H56.5193V320.241H56.7737V320.306H57.028V320.372H57.2188V320.437H57.4732V320.503H57.664V320.568H57.9184V320.634H58.1092V320.699H58.3636V320.765H58.5544V320.83H58.8088V320.895H59.0632V320.961H59.254V321.026H59.5084V321.092H59.6992V321.157H59.9536V321.223H60.1443V321.288H60.3987V321.354H60.5895V321.419H60.8439V321.485H61.0347V321.55H61.2891V321.615H61.4799V321.681H61.6707V321.746H61.9251V321.812H62.1159V321.877H62.3703V321.943H62.5611V322.008H62.7519V322.074H63.0063V322.139H63.1971V322.205H63.3878V322.27H63.6422V322.335H63.833V322.401H64.0874V322.466H64.2782V322.532H64.469V322.597H64.6598V322.663H64.9142V322.728H65.105V322.794H65.2958V322.859H65.4866V322.924H65.741V322.99H65.9318V323.055H66.1226V323.121H66.3133V323.186H66.5677V323.252H66.7585V323.317H66.9493V323.383H67.1401V323.448H67.3309V323.514H67.5853V323.579H67.7761V323.645H67.9669V323.71H68.1577V323.775H68.3485V323.841H68.5393V323.906H68.7937V323.972H68.9845V324.037H69.1753V324.103H69.3661V324.168H69.5568V324.234H69.7476V324.299H69.9384V324.364H70.1292V324.43H70.32V324.495H70.5108V324.561H70.7652V324.626H70.956V324.692H71.1468V324.757H71.3376V324.823H71.5284V324.888H71.7192V324.954H71.91V325.019H72.1008V325.084H72.2916V325.15H72.4824V325.215H72.6731V325.281H72.8639V325.346H73.0547V325.412H73.2455V325.477H73.4363V325.543H73.6271V325.608H73.8179V325.674H74.0087V325.739H74.1995V325.804H74.3903V325.87H74.5811V325.935H74.7719V326.001H74.9627V326.066H75.0899V326.132H75.2807V326.197H75.4715V326.263H75.6623V326.328H75.8531V326.394H76.0438V326.459H76.2346V326.524H76.4254V326.59H76.6162V326.655H76.7434V326.721H76.9342V326.786H77.125V326.852H77.3158V326.917H77.5066V326.983H77.6974V327.048H77.8882V327.114H78.079V327.179H78.2698V327.244H78.397V327.31H78.5878V327.375H78.7786V327.441H78.9693V327.506H79.0965V327.572H79.2873V327.637H79.4781V327.703H79.6689V327.768H79.8597V327.834H79.9869V327.899H80.1777V327.964H80.3685V328.03H80.5593V328.095H80.7501V328.161H80.8773V328.226H81.0681V328.292H81.2589V328.357H81.4497V328.423H81.6405V328.488H81.7677V328.554H81.9585V328.619H82.1492V328.684H82.2764V328.75H82.4672V328.815H82.658V328.881H82.8488V328.946H82.976V329.012H83.1668V329.077H83.3576V329.143H83.4848V329.208H83.6756V329.274H83.8664V329.339H84.0572V329.404H84.1844V329.47H84.3752V329.535H84.566V329.601H84.6932V329.666H84.884V329.732H85.0748V329.797H85.202V329.863H85.3927V329.928H85.5835V329.994H85.7107V330.059H85.9015V330.124H86.0287V330.19H86.2195V330.255H86.4103V330.321H86.5375V330.386H86.7283V330.452H86.9191V330.517H87.0463V330.583H87.2371V330.648H87.4279V330.714H87.5551V330.779H87.7459V330.844H87.8731V330.91H88.0639V330.975H88.1911V331.041H88.3819V331.106H88.5726V331.172H88.6998V331.237H88.8906V331.303H89.0178V331.368H89.2086V331.434H89.3994V331.499H89.5266V331.564H89.7174V331.63H89.8446V331.695H90.0354V331.761H90.1626V331.826H90.3534V331.892H90.4806V331.957H90.6714V332.023H90.7986V332.088H90.9894V332.154H91.1802V332.219H91.3074V332.284H91.4981V332.35H91.6253V332.415H91.8161V332.481H91.9433V332.546H92.1341V332.612H92.2613V332.677H92.4521V332.743H92.5793V332.808H92.7701V332.874H92.8973V332.939H93.0881V333.004H93.2153V333.07H93.4061V333.135H93.5333V333.201H93.6605V333.266H93.8513V333.332H93.9785V333.397H94.1693V333.463H94.2965V333.528H94.4873V333.594H94.6144V333.659H94.8052V333.724H94.9324V333.79H95.1232V333.855H95.2504V333.921H95.3776V333.986H95.5684V334.052H95.6956V334.117H95.8864V334.183H96.0136V334.248H96.2044V334.314H96.3316V334.379H96.4588V334.444H96.6496V334.51H96.7768V334.575H96.9676V334.641H97.0948V334.706H97.222V334.772H97.4128V334.837H97.54V334.903H97.7308V334.968H97.8579V335.034H97.9851V335.099H98.1759V335.164H98.3031V335.23H98.4303V335.295H98.6211V335.361H98.7483V335.426H98.9391V335.492H99.0663V335.557H99.1935V335.623H99.3843V335.688H99.5115V335.754H99.6387V335.819H99.8295V335.884H99.9567V335.95H100.084V336.015H100.275V336.081H100.402V336.146H100.529V336.212H100.72V336.277H100.847V336.343H100.974V336.408H101.101V336.474H101.292V336.539H101.419V336.604H101.547V336.67H101.737V336.735H101.865V336.801H101.992V336.866H102.183V336.932H102.31V336.997H102.437V337.063H102.564V337.128H102.755V337.194H102.882V337.259H103.009V337.324H103.137V337.39H103.327V337.455H103.455V337.521H103.582V337.586H103.709V337.652H103.9V337.717H104.027V337.783H104.154V337.848H104.281V337.914H104.409V337.979H104.599V338.044H104.727V338.11H104.854V338.175H104.981V338.241H105.108V338.306H105.299V338.372H105.426V338.437H105.553V338.503H105.68V338.568H105.871V338.634H106.062V338.699H106.253V338.764H106.444V338.83H106.698V338.895H106.889V338.961H107.08V339.026H107.27V339.092H107.461V339.157H107.652V339.223H107.906V339.288H108.097V339.354H108.288V339.419H108.479V339.484H108.67V339.55H108.86V339.615H109.051V339.681H109.306V339.746H109.496V339.812H109.687V339.877H109.878V339.943H110.069V340.008H110.26V340.074H110.45V340.139H110.641V340.204H110.832V340.27H111.086V340.335H111.277V340.401H111.468V340.466H111.659V340.532H111.85V340.597H112.04V340.663H112.231V340.728H112.422V340.794H112.613V340.859H112.803V340.924H112.994V340.99H113.185V341.055H113.376V341.121H113.567V341.186H113.757V341.252H113.948V341.317H114.139V341.383H114.33V341.448H114.521V341.514H114.711V341.579H114.902V341.644H115.093V341.71H115.347V341.775H115.538V341.841H115.729V341.906H115.92V341.972H116.047V342.037H116.238V342.103H116.429V342.168H116.619V342.234H116.81V342.299H117.001V342.364H117.192V342.43H117.383V342.495H117.573V342.561H117.764V342.626H117.955V342.692H118.146V342.757H118.337V342.823H118.527V342.888H118.718V342.954H118.909V343.019H119.1V343.084H119.29V343.15H119.481V343.215H119.672V343.281H119.863V343.346H120.054V343.412H120.244V343.477H120.372V343.543H120.562V343.608H120.753V343.674H120.944V343.739H121.135V343.804H121.326V343.87H121.516V343.935H121.707V344.001H121.898V344.066H122.089V344.132H122.28V344.197H122.407V344.263H122.598V344.328H122.788V344.394H122.979V344.459H123.17V344.524H123.361V344.59H123.552V344.655H123.742V344.721H123.87V344.786H124.06V344.852H124.251V344.917H124.442V344.983H124.633V345.048H124.823V345.114H125.014V345.179H125.141V345.244H125.332V345.31H125.523V345.375H125.714V345.441H125.905V345.506H126.095V345.572H126.223V345.637H126.413V345.703H126.604V345.768H126.795V345.834H126.986V345.899H127.113V345.964H127.304V346.03H127.495V346.095H127.685V346.161H127.876V346.226H128.003V346.292H128.194V346.357H128.385V346.423H128.576V346.488H128.767V346.554H128.894V346.619H129.085V346.684H129.275V346.75H129.466V346.815H129.593V346.881H129.784V346.946H129.975V347.012H130.166V347.077H130.293V347.143H130.484V347.208H130.674V347.274H130.865V347.339H130.992V347.404H131.183V347.47H131.374V347.535H131.565V347.601H131.692V347.666H131.883V347.732H132.074V347.797H132.264V347.863H132.392V347.928H132.582V347.994H132.773V348.059H132.9V348.124H133.091V348.19H133.282V348.255H133.473V348.321H133.6V348.386H133.791V348.452H133.982V348.517H134.109V348.583H134.3V348.648H134.49V348.714H134.618V348.779H134.808V348.844H134.999V348.91H135.126V348.975H135.317V349.041H135.508V349.106H135.635V349.172H135.826V349.237H136.017V349.303H136.144V349.368H136.335V349.434H136.526V349.499H136.653V349.564H136.844V349.63H137.034V349.695H137.161V349.761H137.352V349.826H137.479V349.892H137.67V349.957H137.861V350.023H137.988V350.088H138.179V350.154H138.37V350.219H138.497V350.284H138.688V350.35H138.815V350.415H139.006V350.481H139.133V350.546H139.324V350.612H139.515V350.677H139.642V350.743H139.833V350.808H139.96V350.874H140.151V350.939H140.341V351.004H140.469V351.07H140.659V351.135H140.787V351.201H140.977V351.266H141.105V351.332H141.295V351.397H141.486V351.463H141.613V351.528H141.804V351.594H141.931V351.659H142.122V351.724H142.249V351.79H142.44V351.855H142.567V351.921H142.758V351.986H142.885V352.052H143.076V352.117H143.203V352.183H143.394V352.248H143.521V352.314H143.712V352.379H143.839V352.444H144.03V352.51H144.157V352.575H144.348V352.641H144.475V352.706H144.666V352.772H144.793V352.837H144.984V352.903H145.111V352.968H145.302V353.034H145.429V353.099H145.62V353.164H145.747V353.23H145.938V353.295H146.065V353.361H146.192V353.426H146.383V353.492H146.51V353.557H146.701V353.623H146.828V353.688H147.019V353.754H147.146V353.819H147.274V353.884H147.464V353.95H147.592V354.015H147.782V354.081H147.91V354.146H148.037V354.212H148.228V354.277H148.355V354.343H148.546V354.408H148.673V354.474H148.864V354.539H148.991V354.604H149.118V354.67H149.309V354.735H149.436V354.801H149.563V354.866H149.754V354.932H149.881V354.997H150.008V355.063H150.199V355.128H150.326V355.194H150.453V355.259H150.644V355.324H150.771V355.39H150.962V355.455H151.089V355.521H151.217V355.586H151.407V355.652H151.535V355.717H151.662V355.783H151.853V355.848H151.98V355.913H152.107V355.979H152.234V356.044H152.425V356.11H152.552V356.175H152.679V356.241H152.87V356.306H152.997V356.372H153.125V356.437H153.252V356.503H153.443V356.568H153.57V356.633H153.697V356.699H153.824V356.764H154.015V356.83H154.142V356.895H154.269V356.961H154.46V357.026H154.587V357.092H154.715V357.157H154.842V357.223H154.969V357.288H155.16V357.354H155.287V357.419H155.414V357.484H155.541V357.55H155.669V357.615H155.859V357.681H155.986V357.746H156.114V357.812H156.241V357.877H156.368V357.943H156.559V358.008H156.686V358.073H156.813V358.139H156.94V358.204H157.068V358.27H157.258V358.335H157.386V358.401H157.513V358.466H157.64V358.532H157.767V358.597H157.894V358.663H158.022V358.728H158.149V358.793H158.34V358.859H158.467V358.924H158.594V358.99H158.721V359.055H158.848V359.121H158.976V359.186H159.103V359.252H159.23V359.317H159.421V359.383H159.548V359.448H159.675V359.513H159.802V359.579H159.93V359.644H160.057V359.71H160.184V359.775H160.311V359.841H160.438V359.906H160.566V359.972H160.693V360.037H160.82V360.103H160.947V360.168H161.074V360.233H161.202V360.299H161.329V360.364H161.456V360.43H161.583V360.495H161.71V360.561H161.838V360.626H161.965V360.692H162.092V360.757H162.283V360.823H162.41V360.888H162.537V360.953H162.601V361.019H162.728V361.084H162.855V361.15H162.982V361.215H163.109V361.281H163.237V361.346H163.364V361.412H163.491V361.477H163.618V361.543H163.745V361.608H163.873V361.673H164V361.739H164.127V361.804H164.254V361.87H164.381V361.935H164.445V362.001H164.572V362.066H164.699V362.132H164.827V362.197H164.954V362.263H165.081V362.328H165.208V362.393H165.335V362.459H165.399V362.524H165.526V362.59H165.653V362.655H165.781V362.721H165.908V362.786H166.035V362.852H166.099V362.917H166.226V362.983H166.353V363.048H166.48V363.113H166.607V363.179H166.735V363.244H166.798V363.31H166.925V363.375H167.053V363.441H167.18V363.506H167.307V363.572H167.371V363.637H167.498V363.703H167.625V363.768H167.689V363.833H167.816V363.899H167.943V363.964H168.07V364.03H168.134V364.095H168.261V364.161H168.388V364.226H168.515V364.292H168.579V364.357H168.706V364.423H168.833V364.488H168.897V364.553H169.024V364.619H169.151V364.684H169.278V364.75H169.342V364.815H169.469V364.881H169.533V364.946H169.66V365.012H169.787V365.077H169.851V365.143H169.978V365.208H170.042V365.273H170.169V365.339H170.296V365.404H170.36V365.47H170.487V365.535H170.614V365.601H170.678V365.666H170.805V365.732H170.868V365.797H170.996V365.863H171.123V365.928H171.186V365.993H171.314V366.059H171.377V366.124H171.504V366.19H171.568V366.255H171.695V366.321H171.759V366.386H171.886V366.452H171.95V366.517H172.077V366.583H172.14V366.648H172.268V366.713H172.331V366.779H172.458V366.844H172.522V366.91H172.649V366.975H172.713V367.041H172.776V367.106H172.904V367.172H172.967V367.237H173.094V367.303H173.158V367.368H173.285V367.433H173.349V367.499H173.412V367.564H173.54V367.63H173.603V367.695H173.73V367.761H173.794V367.826H173.921V367.892H173.985V367.957H174.112V368.023H174.176V368.088H174.303V368.153H174.366V368.219H174.494V368.284H174.557V368.35H174.684V368.415H174.748V368.481H174.875V368.546H174.939V368.612H175.066V368.677H175.129V368.743H175.257V368.808H175.32V368.873H175.447V368.939H175.575V369.004H175.638V369.07H175.765V369.135H175.829V369.201H175.956V369.266H176.02V369.332H176.147V369.397H176.211V369.463H176.338V369.528H176.401V369.593H176.529V369.659H176.656V369.724H176.719V369.79H176.847V369.855H176.91V369.921H177.037V369.986H177.165V370.052H177.228V370.117H177.355V370.183H177.419V370.248H177.546V370.313H177.673V370.379H177.737V370.444H177.864V370.51H177.991V370.575H178.055V370.641H178.182V370.706H178.246V370.772H178.373V370.837H178.5V370.903H178.564V370.968H178.691V371.033H178.818V371.099H178.882V371.164H179.009V371.23H179.136V371.295H179.2V371.361H179.327V371.426H179.454V371.492H179.518V371.557H179.645V371.623H179.772V371.688H179.836V371.753H179.963V371.819H180.09V371.884H180.154V371.95H180.281V372.015H180.408V372.081H180.472V372.146H180.599V372.212H180.726V372.277H180.853V372.343H180.917V372.408H181.044V372.473H181.171V372.539H181.235V372.604H181.362V372.67H181.489V372.735H181.616V372.801H181.68V372.866H181.807V372.932H181.934V372.997H182.062V373.063H182.125V373.128H182.252V373.193H182.38V373.259H182.507V373.324H182.57V373.39H182.698V373.455H182.825V373.521H182.952V373.586H183.016V373.652H183.143V373.717H183.27V373.783H183.397V373.848H183.524V373.913H183.588V373.979H183.715V374.044H183.842V374.11H183.97V374.175H184.097V374.241H184.16V374.306H184.288V374.372H184.415V374.437H184.542V374.503H184.606V374.568H184.733V374.633H184.86V374.699H184.987V374.764H185.114V374.83H185.178V374.895H185.305V374.961H185.432V375.026H185.56V375.092H185.687V375.157H185.814V375.223H185.941V375.288H186.005V375.353H186.132V375.419H186.259V375.484H186.386V375.55H186.514V375.615H186.641V375.681H186.768V375.746H186.832V375.812H186.959V375.877H187.086V375.943H187.213V376.008H187.34V376.073H187.467V376.139H187.531V376.204H187.658V376.27H187.785V376.335H187.913V376.401H188.04V376.466H188.167V376.532H188.294V376.597H188.421V376.663H188.549V376.728H188.676V376.793H188.739V376.859H188.867V376.924H188.994V376.99H189.121V377.055H189.248V377.121H189.375V377.186H189.503V377.252H189.63V377.317H189.757V377.383H189.884V377.448H189.948V377.513H190.075V377.579H190.202V377.644H190.329V377.71H190.457V377.775H190.584V377.841H190.711V377.906H190.838V377.972H190.965V378.037H191.093V378.103H191.22V378.168H191.347V378.233H191.474V378.299H191.601V378.364H191.729V378.43H191.856V378.495H191.983V378.561H192.047V378.626H192.174V378.692H192.301V378.757H192.428V378.823H192.555V378.888H192.683V378.953H192.81V379.019H192.937V379.084H193.064V379.15H193.191V379.215H193.319V379.281H193.446V379.346H193.573V379.412H193.7V379.477H193.827V379.543H193.954V379.608H194.082V379.673H194.209V379.739H194.336V379.804H194.463V379.87H194.59V379.935H194.718V380.001H194.845V380.066H194.972V380.132H195.099V380.197H195.226V380.263H195.354V380.328H195.481V380.393H195.608V380.459H195.735V380.524H195.862V380.59H195.99V380.655H196.117V380.721H196.244V380.786H196.371V380.852H196.498V380.917H196.689V380.983H196.816V381.048H196.944V381.113H197.071V381.179H197.198V381.244H197.325V381.31H197.452V381.375H197.58V381.441H197.707V381.506H197.834V381.572H197.961V381.637H198.088V381.703H198.216V381.768H198.343V381.833H198.47V381.899H198.597V381.964H198.724V382.03H198.852V382.095H199.042V382.161H199.17V382.226H199.297V382.292H199.424V382.357H199.551V382.423H199.678V382.488H199.806V382.553H199.933V382.619H200.06V382.684H200.187V382.75H200.314V382.815H200.441V382.881H200.632V382.946H200.759V383.012H200.887V383.077H201.014V383.143H201.141V383.208H201.268V383.273H201.395V383.339H201.523V383.404H201.713V383.47H201.841V383.535H201.968V383.601H202.095V383.666H202.222V383.732H202.349V383.797H202.477V383.863H202.604V383.928H202.795V383.993H202.922V384.059H203.049V384.124H203.176V384.19H203.303V384.255H203.431V384.321H203.558V384.386H203.749V384.452H203.876V384.517H204.003V384.583H204.13V384.648H204.257V384.713H204.385V384.779H204.575V384.844H204.703V384.91H204.83V384.975H204.957V385.041H205.084V385.106H205.211V385.172H205.402V385.237H205.529V385.303H205.657V385.368H205.784V385.433H205.911V385.499H206.038V385.564H206.229V385.63H206.356V385.695H206.483V385.761H206.61V385.826H206.738V385.892H206.928V385.957H207.056V386.023H207.183V386.088H207.31V386.153H207.437V386.219H207.628V386.284H207.755V386.35H207.882V386.415H208.01V386.481H208.137V386.546H208.328V386.612H208.455V386.677H208.582V386.743H208.709V386.808H208.836V386.873H209.027V386.939H209.154V387.004H209.282V387.07H209.409V387.135H209.6V387.201H209.727V387.266H209.854V387.332H209.981V387.397H210.172V387.463H210.299V387.528H210.426V387.593H210.554V387.659H210.744V387.724H210.872V387.79H210.999V387.855H211.126V387.921H211.317V387.986H211.444V388.052H211.571V388.117H211.698V388.183H211.889V388.248H212.016V388.313H212.144V388.379H212.334V388.444H212.462V388.51H212.589V388.575H212.779V388.641H212.907V388.706H213.034V388.772H213.161V388.837H213.352V388.903H213.479V388.968H213.606V389.033H213.797V389.099H213.924V389.164H214.051V389.23H214.179V389.295H214.369V389.361H214.497V389.426H214.624V389.492H214.815V389.557H214.942V389.622H215.069V389.688H215.26V389.753H215.387V389.819H215.514V389.884H215.705V389.95H215.832V390.015H215.959V390.081H216.15V390.146H216.277V390.212H216.405V390.277H216.595V390.342H216.723V390.408H216.85V390.473H217.041V390.539H217.168V390.604H217.295V390.67H217.486V390.735H217.613V390.801H217.804V390.866H217.931V390.932H218.058V390.997H218.249V391.062H218.376V391.128H218.503V391.193H218.694V391.259H218.821V391.324H218.949V391.39H219.139V391.455H219.266V391.521H219.457V391.586H219.584V391.652H219.712V391.717H219.902V391.782H220.03V391.848H220.22V391.913H220.348V391.979H220.475V392.044H220.666V392.11H220.793V392.175H220.984V392.241H221.111V392.306H221.302V392.372H221.429V392.437H221.556V392.502H221.747V392.568H221.874V392.633H222.065V392.699H222.192V392.764H222.319V392.83H222.51V392.895H222.637V392.961H222.828V393.026H222.955V393.092H223.146V393.157H223.273V393.222H223.464V393.288H223.591V393.353H223.782V393.419H223.909V393.484H224.1V393.55H224.227V393.615H224.354V393.681H224.545V393.746H224.672V393.812H224.863V393.877H224.99V393.942H225.181V394.008H225.308V394.073H225.499V394.139H225.626V394.204H225.817V394.27H225.944V394.335H226.135V394.401H226.262V394.466H226.453V394.532H226.58V394.597H226.771V394.662H226.898V394.728H227.089V394.793H227.216V394.859H227.407V394.924H227.598V394.99H227.725V395.055H227.916V395.121H228.043V395.186H228.234V395.252H228.361V395.317H228.552V395.382H228.743V395.448H228.87V395.513H229.061V395.579H229.188V395.644H229.379V395.71H229.506V395.775H229.697V395.841H229.824V395.906H230.015V395.972H230.205V396.037H230.333V396.102H230.523V396.168H230.714V396.233H230.841V396.299H231.032V396.364H231.159V396.43H231.35V396.495H231.541V396.561H231.668V396.626H231.859V396.692H232.05V396.757H232.177V396.822H232.368V396.888H232.495V396.953H232.686V397.019H232.876V397.084H233.067V397.15H233.194V397.215H233.385V397.281H233.576V397.346H233.703V397.412H233.894V397.477H234.085V397.542H234.212V397.608H234.403V397.673H234.594V397.739H234.721V397.804H234.912V397.87H235.102V397.935H235.293V398.001H235.42V398.066H235.611V398.132H235.802V398.197H235.993V398.262H236.12V398.328H236.311V398.393H236.502V398.459H236.692V398.524H236.82V398.59H237.01V398.655H237.201V398.721H237.392V398.786H237.583V398.852H237.773V398.917H237.964V398.982H238.091V399.048H238.282V399.113H238.473V399.179H238.664V399.244H238.855V399.31H239.045V399.375H239.236V399.441H239.427V399.506H239.554V399.572H239.745V399.637H239.936V399.702H240.127V399.768H240.317V399.833H240.508V399.899H240.699V399.964H240.89V400.03H241.081V400.095H241.271V400.161H241.462V400.226H241.653V400.292H241.844V400.357H242.035V400.422H242.225V400.488H242.416V400.553H242.671V400.619H242.861V400.684H243.052V400.75H243.243V400.815H243.434V400.881H243.625V400.946H243.879V401.012H244.07V401.077H244.26V401.142H244.451V401.208H244.706V401.273H244.896V401.339H245.087V401.404H245.342V401.47H245.532V401.535H245.787V401.601H245.978V401.666H246.232V401.732H246.423V401.797H246.677V401.862H246.932V401.928H247.122V401.993H247.377V402.059H247.631V402.124H247.886V402.19H248.14V402.255H248.394V402.321H248.649V402.386H248.903V402.452H249.221V402.517H249.476V402.582H249.794V402.648H250.048V402.713H250.302V402.779H250.62V402.844H250.875V402.91H251.193V402.975H251.511V403.041H251.765V403.106H252.083V403.172H252.401V403.237H252.655V403.302H252.973V403.368H253.291V403.433H253.609V403.499H253.864V403.564H254.182V403.63H254.5V403.695H254.818V403.761H255.136V403.826H255.39V403.892H255.708V403.957H256.026V404.022H256.344V404.088H256.662V404.153H256.98V404.219H257.298V404.284H257.616V404.35H257.934V404.415H258.252V404.481H258.57V404.546H258.824V404.612H259.142V404.677H259.46V404.742H259.778V404.808H260.096V404.873H260.414V404.939H260.732V405.004H261.05V405.07H261.368V405.135H261.75V405.201H262.068V405.266H262.386V405.332H262.704V405.397H263.022V405.462H263.34V405.528H263.658V405.593H263.976V405.659H264.294V405.724H264.612V405.79H264.93V405.855H265.248V405.921H265.566V405.986H265.947V406.052H266.265V406.117H266.583V406.182H266.901V406.248H267.219V406.313H267.537V406.379H267.855V406.444H268.237V406.51H268.555V406.575H268.873V406.641H269.191V406.706H269.509V406.772H269.827V406.837H270.145V406.902H270.526V406.968H270.844V407.033H271.162V407.099H271.48V407.164H271.798V407.23H272.18V407.295H272.498V407.361H272.816V407.426H273.134V407.492H273.452V407.557H273.834V407.622H274.152V407.688H274.47V407.753H274.788V407.819H275.105V407.884H275.487V407.95H275.805V408.015H276.123V408.081H276.441V408.146H276.823V408.212H277.141V408.277H277.459V408.342H277.777V408.408H278.158V408.473H278.476V408.539H278.794V408.604H279.112V408.67H279.494V408.735H279.812V408.801H280.13V408.866H280.448V408.932H280.829V408.997H281.147V409.062H281.465V409.128H281.783V409.193H282.165V409.259H282.483V409.324H282.801V409.39H283.182V409.455H283.5V409.521H283.818V409.586H284.136V409.652H284.518V409.717H284.836V409.782H285.154V409.848H285.536V409.913H285.854V409.979H286.172V410.044H286.553V410.11H286.871V410.175H287.189V410.241H287.507V410.306H287.889V410.372H288.207V410.437H288.525V410.502H288.906V410.568H289.224V410.633H289.542V410.699H289.924V410.764H290.242V410.83H290.56V410.895H290.941V410.961H291.259V411.026H291.577V411.092H291.959V411.157H292.277V411.222H292.595V411.288H292.977V411.353H293.295V411.419H293.613V411.484H293.994V411.55H294.312V411.615H294.63V411.681H295.012V411.746H295.33V411.812H295.648V411.877H296.029V411.942H296.347V412.008H296.665V412.073H297.047V412.139H297.365V412.204H297.746V412.27H298.064V412.335H298.382V412.401H298.764V412.466H299.082V412.532H299.4V412.597H299.782V412.662H300.1V412.728H300.418V412.793H300.799V412.859H301.117V412.924H301.499V412.99H301.817V413.055H302.135V413.121H302.516V413.186H302.834V413.252H303.152V413.317H303.534V413.382H303.852V413.448H304.233V413.513H304.551V413.579H304.869V413.644H305.251V413.71H305.569V413.775H305.887V413.841H306.269V413.906H306.587V413.972H306.968V414.037H307.286V414.102H307.604V414.168H307.986V414.233H308.304V414.299H308.685V414.364H309.003V414.43H309.321V414.495H309.703V414.561H310.021V414.626H310.402V414.692H310.72V414.757H311.038V414.822H311.42V414.888H311.738V414.953H312.12V415.019H312.438V415.084H312.819V415.15H313.137V415.215H313.455V415.281H313.837V415.346H314.155V415.412H314.536V415.477H314.854V415.542H315.172V415.608H315.554V415.673H315.872V415.739H316.253V415.804H316.571V415.87H316.889V415.935H317.271V416.001H317.589V416.066H317.971V416.132H318.289V416.197H318.67V416.262H318.988V416.328H319.306V416.393H319.688V416.459H320.006V416.524H320.387V416.59H320.705V416.655H321.087V416.721H321.405V416.786H321.723V416.852H322.104V416.917H322.422V416.982H322.804V417.048H323.122V417.113H323.504V417.179H323.822V417.244H324.203V417.31H324.521V417.375H324.839V417.441H325.221V417.506H325.539V417.572H325.92V417.637H326.238V417.702H326.62V417.768H326.938V417.833H327.319V417.899H327.637V417.964H327.955V418.03H328.337V418.095H328.655V418.161H329.037V418.226H329.355V418.292H329.736V418.357H330.054V418.422H330.436V418.488H330.754V418.553H331.135V418.619H331.453V418.684H331.771V418.75H332.153V418.815H332.471V418.881H332.852V418.946H333.17V419.012H333.552V419.077H333.87V419.142H334.252V419.208H334.57V419.273H334.951V419.339H335.269V419.404H335.651V419.47H335.969V419.535H336.287V419.601H336.668V419.666H336.986V419.732H337.368V419.797H337.686V419.862H338.068V419.928H338.385V419.993H338.767V420.059H339.085V420.124H339.467V420.19H339.785V420.255H340.166V420.321H340.484V420.386H340.866V420.452H341.184V420.517H341.565V420.582H341.883V420.648H342.265V420.713H342.583V420.779H342.965V420.844H343.283V420.91H343.601V420.975H343.982V421.041H344.3V421.106H344.682V421.172H345V421.237H345.381V421.302H345.699V421.368H346.081V421.433H346.399V421.499H346.78V421.564H347.098V421.63H347.48V421.695H347.798V421.761H348.18V421.826H348.498V421.891H348.879V421.957H349.197V422.022H349.579V422.088H349.897V422.153H350.278V422.219H350.596V422.284H350.978V422.35H351.296V422.415H351.677V422.481H351.995V422.546H352.377V422.611H352.695V422.677H353.077V422.742H353.395V422.808H353.776V422.873H354.094V422.939H354.476V423.004H354.794V423.07H355.175V423.135H355.493V423.201H355.875V423.266H356.193V423.331H356.575V423.397H356.893V423.462H357.274V423.528H357.592V423.593H357.974V423.659H358.292V423.724H358.673V423.79H358.991V423.855H359.373V423.921H359.691V423.986H360.072V424.051H360.39V424.117H360.772V424.182H361.09V424.248H361.472V424.313H361.79V424.379H362.171V424.444H362.489V424.51H362.871V424.575H363.189V424.641H363.57V424.706H363.952V424.771H364.27V424.837H364.651V424.902H364.969V424.968H365.351V425.033H365.669V425.099H366.051V425.164H366.369V425.23H366.75V425.295H367.068V425.361H367.45V425.426H367.768V425.491H368.149V425.557H368.467V425.622H368.849V425.688H369.167V425.753H369.548V425.819H369.866V425.884H370.248V425.95H370.566V426.015H370.948V426.081H371.329V426.146H371.647V426.211H372.029V426.277H372.347V426.342H372.728V426.408H373.046V426.473H373.428V426.539H373.746V426.604H374.128V426.67H374.446V426.735H374.827V426.801H375.145V426.866H375.527V426.931H375.908V426.997H376.226V427.062H376.608V427.128H376.926V427.193H377.307V427.259H377.625V427.324H378.007V427.39H378.325V427.455H378.707V427.521H379.025V427.586H379.406V427.651H379.788V427.717H380.106V427.782H380.487V427.848H380.805V427.913H381.187V427.979H381.505V428.044H381.887V428.11H382.204V428.175H382.395V428.241H382.268V428.306H382.077V428.371H381.95V428.437H381.759V428.502H381.569V428.568H381.441V428.633H381.251V428.699H381.123V428.764H380.933V428.83H380.742V428.895H380.615V428.961H380.424V429.026H380.233V429.091H380.106V429.157H379.915V429.222H379.788V429.288H379.597V429.353H379.406V429.419H379.279V429.484H379.088V429.55H378.897V429.615H378.77V429.681H378.579V429.746H378.389V429.811H378.261V429.877H378.071V429.942H377.943V430.008H377.753V430.073H377.562V430.139H377.435V430.204H377.244V430.27H377.053V430.335H376.926V430.401H376.735V430.466H376.544V430.531H376.417V430.597H376.226V430.662H376.099V430.728H375.908V430.793H375.717V430.859H375.59V430.924H375.4V430.99H375.209V431.055H375.082V431.121H374.891V431.186H374.764V431.251H374.573V431.317H374.382V431.382H374.255V431.448H374.064V431.513H373.873V431.579H373.746V431.644H373.555V431.71H373.364V431.775H373.237V431.841H373.046V431.906H372.919V431.971H372.728V432.037H372.538V432.102H372.41V432.168H372.22V432.233H372.029V432.299H371.902V432.364H371.711V432.43H371.584V432.495H371.393V432.561H371.202V432.626H371.075V432.691H370.884V432.757H370.693V432.822H370.566V432.888H370.375V432.953H370.184V433.019H370.057V433.084H369.866V433.15H369.739V433.215H369.548V433.281H369.358V433.346H369.231V433.411H369.04V433.477H368.849V433.542H368.722V433.608H368.531V433.673H368.34V433.739H368.213V433.804H368.022V433.87H367.895V433.935H367.704V434.001H367.513V434.066H367.386V434.131H367.195V434.197H367.005V434.262H366.877V434.328H366.687V434.393H366.559V434.459H366.369V434.524H366.178V434.59H366.051V434.655H365.86V434.721H365.669V434.786H365.542V434.851H365.351V434.917H365.16V434.982H365.033V435.048H364.842V435.113" fill="url(#paint6_linear_51_1540)"/>
<path d="M285.835 451.562L284.473 451.561L206.21 451.447C187.875 444.125 161.852 433.568 134.955 422.113C130.458 420.198 125.844 418.174 121.125 416.089L120.721 381.885C135.718 389.241 149.069 397.009 161.903 403.941C166.589 406.472 171.202 408.89 175.806 411.139C180.223 413.295 184.629 415.294 189.071 417.082C197.205 420.355 205.463 422.921 214.147 424.451C262.082 432.896 285.835 451.562 285.835 451.562ZM119.039 415.167C83.5306 399.46 42.4177 380.878 2.54556 380.878C-4.01235 380.878 -10.5379 381.38 -16.9983 382.481V356.038C-12.4602 355.35 -2.0265 354.042 11.684 354.042C18.6384 354.042 26.4361 354.378 34.7331 355.304C42.3802 356.157 50.4539 357.51 58.6822 359.561C65.2309 361.045 71.4705 362.72 77.4443 364.548C80.2114 365.394 82.9277 366.276 85.5829 367.184C96.696 370.982 106.863 375.279 116.355 379.779C117.348 380.25 118.328 380.72 119.306 381.195L119.039 415.167Z" fill="url(#paint7_linear_51_1540)"/>
<path d="M556.332 464.577L525.116 463.484C520.841 463.484 525.189 459.936 525.116 463.484C513.835 451.63 504.154 433.355 495.979 433.355C494.552 433.355 493.169 433.502 491.827 433.784L490.882 353.706C510.999 346.891 532.375 342.496 556.332 340.779V464.577ZM398.643 462.574H285.452C285.452 462.574 310.939 455.301 344.701 437.696C348.573 435.677 352.556 433.521 356.62 431.226C363.523 427.327 370.664 423.023 377.918 418.29C378.528 417.892 379.147 417.486 379.758 417.082C380.117 416.845 380.475 416.607 380.833 416.369C384.857 413.69 388.905 410.884 392.963 407.938C395.023 406.445 397.069 404.974 399.108 403.523L398.643 462.574ZM525.116 463.484C518.695 463.484 481.146 463.484 470.758 463.484C466.703 463.484 460.054 463.484 456.448 463.484C451.813 463.484 451.44 463.484 444.285 463.484C435.222 463.484 407.796 462.574 398.643 462.574L399.108 403.523C402.647 401.075 413.588 393.486 417.089 391.177C419.46 389.614 421.826 388.081 424.186 386.583C440.193 376.419 456.006 367.761 472.418 360.766C475.522 359.443 487.731 354.909 490.882 353.706L525.116 463.484C531.538 463.484 516.787 463.484 525.116 463.484Z" fill="url(#paint8_linear_51_1540)"/>
<path d="M232.122 461.67L231.045 461.669L171.742 461.636C163.913 453.985 153.477 444.094 151.608 443.853C151.551 443.846 151.479 443.842 151.395 443.842C148.755 443.842 133.341 447.424 121.528 450.266L121.125 416.089C125.844 418.174 130.458 420.198 134.955 422.113C161.852 433.568 187.875 444.125 206.21 451.447C222.024 457.761 232.122 461.67 232.122 461.67ZM49.2933 461.568L24.0232 461.554C21.9531 460.65 20.3638 460.01 19.9364 459.973C19.9313 459.973 19.925 459.973 19.9186 459.973C19.6102 459.973 18.5837 460.572 17.1133 461.55L15.8013 461.549L-14.3813 461.532L-16.9983 461.531V382.481C-10.5379 381.38 -4.01235 380.878 2.54556 380.878C42.4177 380.878 83.5306 399.459 119.039 415.167L118.758 450.934C112.335 452.489 107.548 453.683 107.548 453.683L95.0692 447.261C95.0692 447.261 69.4722 449.751 66.9258 451.454C65.5196 452.396 56.8099 457.334 49.2933 461.568Z" fill="url(#paint9_linear_51_1540)"/>
<defs>
<linearGradient id="paint0_linear_51_1540" x1="272.332" y1="-56" x2="272.332" y2="430.98" gradientUnits="userSpaceOnUse">
<stop stop-color="#49ADBC"/>
<stop offset="0.901042" stop-color="#B8E5B5"/>
<stop offset="1" stop-color="#B8E5B5"/>
</linearGradient>
<linearGradient id="paint1_linear_51_1540" x1="270.829" y1="37.5632" x2="270.829" y2="437.082" gradientUnits="userSpaceOnUse">
<stop stop-color="#88D3D5"/>
<stop offset="0.959391" stop-color="#D6F0D3"/>
<stop offset="1" stop-color="#D6F0D3"/>
</linearGradient>
<linearGradient id="paint2_linear_51_1540" x1="270.828" y1="37.5631" x2="270.828" y2="437.081" gradientUnits="userSpaceOnUse">
<stop stop-color="#88D3D5"/>
<stop offset="0.959391" stop-color="#D6F0D3"/>
<stop offset="1" stop-color="#D6F0D3"/>
</linearGradient>
<linearGradient id="paint3_linear_51_1540" x1="270.828" y1="37.5628" x2="270.828" y2="437.081" gradientUnits="userSpaceOnUse">
<stop stop-color="#88D3D5"/>
<stop offset="0.959391" stop-color="#D6F0D3"/>
<stop offset="1" stop-color="#D6F0D3"/>
</linearGradient>
<linearGradient id="paint4_linear_51_1540" x1="270.829" y1="37.5625" x2="270.829" y2="437.083" gradientUnits="userSpaceOnUse">
<stop stop-color="#88D3D5"/>
<stop offset="0.959391" stop-color="#D6F0D3"/>
<stop offset="1" stop-color="#D6F0D3"/>
</linearGradient>
<linearGradient id="paint5_linear_51_1540" x1="259.318" y1="406.733" x2="310.515" y2="323.44" gradientUnits="userSpaceOnUse">
<stop stop-color="#43794B"/>
<stop offset="0.959391" stop-color="#9BBA54"/>
<stop offset="1" stop-color="#9BBA54"/>
</linearGradient>
<linearGradient id="paint6_linear_51_1540" x1="-30.9372" y1="374.126" x2="382.34" y2="374.126" gradientUnits="userSpaceOnUse">
<stop stop-color="#43794B"/>
<stop offset="0.035533" stop-color="#467C5F"/>
<stop offset="0.959391" stop-color="#9BBA54"/>
<stop offset="1" stop-color="#9BBA54"/>
</linearGradient>
<linearGradient id="paint7_linear_51_1540" x1="108.906" y1="436.418" x2="168.475" y2="361.312" gradientUnits="userSpaceOnUse">
<stop stop-color="#263D2D"/>
<stop offset="0.959391" stop-color="#798C4A"/>
<stop offset="1" stop-color="#798C4A"/>
</linearGradient>
<linearGradient id="paint8_linear_51_1540" x1="512.664" y1="479.494" x2="417.942" y2="401.265" gradientUnits="userSpaceOnUse">
<stop stop-color="#1F3B35"/>
<stop offset="0.959391" stop-color="#5D9250"/>
<stop offset="1" stop-color="#5D9250"/>
</linearGradient>
<linearGradient id="paint9_linear_51_1540" x1="-63.0393" y1="421.273" x2="232.121" y2="421.273" gradientUnits="userSpaceOnUse">
<stop stop-color="#263D2D"/>
<stop offset="0.959391" stop-color="#798C4A"/>
<stop offset="1" stop-color="#798C4A"/>
</linearGradient>
</defs>
</svg>
