<svg width="335" height="277" viewBox="0 0 335 277" fill="none" xmlns="http://www.w3.org/2000/svg">
<g clip-path="url(#clip0_51_1798)">
<rect opacity="0.76" x="27.0466" y="19.6494" width="10.1714" height="2.54286" transform="rotate(171 27.0466 19.6494)" fill="#E9BD31"/>
<rect opacity="0.89" x="47.1582" y="13.8701" width="9.15429" height="2.28857" transform="rotate(-100 47.1582 13.8701)" fill="#E9BD31"/>
<rect opacity="0.76" x="162.974" y="5.7793" width="7.21247" height="1.80312" transform="rotate(-71 162.974 5.7793)" fill="#E9BD31"/>
<rect opacity="0.83" x="222.847" y="12.7144" width="10.7262" height="2.68156" transform="rotate(-130 222.847 12.7144)" fill="#E9BD31"/>
<rect opacity="0.99" x="263.764" y="4.62354" width="6.19533" height="1.54883" transform="rotate(124 263.764 4.62354)" fill="#E9BD31"/>
<rect opacity="0.97" x="302.369" y="1.15576" width="8.69195" height="2.17299" transform="rotate(97 302.369 1.15576)" fill="#E9BD31"/>
<rect opacity="0.97" x="23.5791" y="25.4287" width="7.95221" height="1.98805" transform="rotate(131 23.5791 25.4287)" fill="#E9BD31"/>
<rect opacity="0.75" x="63.3401" y="43.9219" width="5.82545" height="1.45636" transform="rotate(171 63.3401 43.9219)" fill="#E9BD31"/>
<rect opacity="0.98" x="96.1665" y="30.0518" width="7.85974" height="1.96494" transform="rotate(127 96.1665 30.0518)" fill="#E9BD31"/>
<rect opacity="0.91" x="118.59" y="34.6753" width="5.91792" height="1.47948" transform="rotate(-41 118.59 34.6753)" fill="#E9BD31"/>
<rect opacity="0.78" x="165.286" y="28.896" width="5.73299" height="1.43325" transform="rotate(-86 165.286 28.896)" fill="#E9BD31"/>
<rect opacity="0.87" x="208.514" y="27.7402" width="6.93506" height="1.73377" transform="rotate(173 208.514 27.7402)" fill="#E9BD31"/>
<rect opacity="0.96" x="233.249" y="58.9482" width="6.56519" height="1.6413" transform="rotate(31 233.249 58.9482)" fill="#E9BD31"/>
<rect opacity="0.81" x="269.543" y="52.0132" width="9.61662" height="2.40416" transform="rotate(168 269.543 52.0132)" fill="#E9BD31"/>
<rect opacity="0.95" x="295.434" y="27.7402" width="5.64052" height="1.41013" transform="rotate(-171 295.434 27.7402)" fill="#E9BD31"/>
<rect opacity="0.78" x="-0.693604" y="76.2856" width="8.04468" height="2.01117" transform="rotate(-150 -0.693604 76.2856)" fill="#E9BD31"/>
<rect opacity="0.95" x="39.0674" y="110.961" width="8.59948" height="2.14987" transform="rotate(-145 39.0674 110.961)" fill="#E9BD31"/>
<rect opacity="0.98" x="99.634" y="108.649" width="7.3974" height="1.84935" transform="rotate(7 99.634 108.649)" fill="#E9BD31"/>
<rect opacity="0.92" x="126.681" y="99.4028" width="8.69195" height="2.17299" transform="rotate(-57 126.681 99.4028)" fill="#E9BD31"/>
<rect opacity="0.81" x="145.636" y="91.3115" width="10.7262" height="2.68156" transform="rotate(80 145.636 91.3115)" fill="#E9BD31"/>
<rect opacity="0.73" x="180.774" y="108.649" width="9.43169" height="2.35792" transform="rotate(-7 180.774 108.649)" fill="#E9BD31"/>
<rect opacity="0.92" x="239.028" y="113.273" width="9.80156" height="2.45039" transform="rotate(-170 239.028 113.273)" fill="#E9BD31"/>
<rect opacity="0.86" x="273.011" y="106.338" width="10.2639" height="2.56597" transform="rotate(-80 273.011 106.338)" fill="#E9BD31"/>
<rect opacity="0.97" x="310.46" y="109.805" width="9.98649" height="2.49662" transform="rotate(133 310.46 109.805)" fill="#E9BD31"/>
<rect opacity="0.79" x="44.8467" y="130.61" width="6.8426" height="1.71065" transform="rotate(-64 44.8467 130.61)" fill="#E9BD31"/>
<rect opacity="0.72" x="70.738" y="127.143" width="7.02753" height="1.75688" transform="rotate(34 70.738 127.143)" fill="#E9BD31"/>
<rect opacity="0.74" x="108.187" y="136.39" width="10.8187" height="2.70468" transform="rotate(-130 108.187 136.39)" fill="#E9BD31"/>
<rect opacity="0.89" x="162.974" y="127.143" width="10.9112" height="2.72779" transform="rotate(-159 162.974 127.143)" fill="#E9BD31"/>
<rect opacity="0.73" x="187.709" y="136.39" width="7.02753" height="1.75688" transform="rotate(29 187.709 136.39)" fill="#E9BD31"/>
<rect opacity="0.92" x="226.314" y="127.143" width="9.24675" height="2.31169" transform="rotate(163 226.314 127.143)" fill="#E9BD31"/>
<rect opacity="0.8" x="286.881" y="138.701" width="6.8426" height="1.71065" transform="rotate(-121 286.881 138.701)" fill="#E9BD31"/>
<rect x="308.148" y="131.766" width="7.02753" height="1.75688" transform="rotate(-54 308.148 131.766)" fill="#E9BD31"/>
<rect opacity="0.73" x="8.55322" y="182.624" width="9.89403" height="2.47351" transform="rotate(-112 8.55322 182.624)" fill="#E9BD31"/>
<rect opacity="0.91" x="57.5608" y="172.221" width="7.58234" height="1.89558" transform="rotate(141 57.5608 172.221)" fill="#E9BD31"/>
<rect opacity="0.77" x="103.102" y="168.753" width="9.06182" height="2.26545" transform="rotate(25 103.102 168.753)" fill="#E9BD31"/>
<rect opacity="0.92" x="115.122" y="188.403" width="8.22961" height="2.0574" transform="rotate(72 115.122 188.403)" fill="#E9BD31"/>
<rect opacity="0.8" x="158.351" y="167.597" width="5.64052" height="1.41013" transform="rotate(72 158.351 167.597)" fill="#E9BD31"/>
<rect opacity="0.73" x="199.268" y="182.624" width="9.9865" height="2.49662" transform="rotate(-124 199.268 182.624)" fill="#E9BD31"/>
<rect opacity="0.86" x="245.963" y="199.961" width="8.59948" height="2.14987" transform="rotate(-87 245.963 199.961)" fill="#E9BD31"/>
<rect opacity="0.82" x="266.076" y="190.714" width="6.38026" height="1.59506" transform="rotate(115 266.076 190.714)" fill="#E9BD31"/>
<rect opacity="0.89" x="328.953" y="199.961" width="5.91792" height="1.47948" transform="rotate(80 328.953 199.961)" fill="#E9BD31"/>
<rect opacity="0.74" x="8.55322" y="255.441" width="6.65766" height="1.66442" transform="rotate(-49 8.55322 255.441)" fill="#E9BD31"/>
<rect opacity="0.89" x="67.9634" y="249.662" width="10.4488" height="2.61221" transform="rotate(120 67.9634 249.662)" fill="#E9BD31"/>
<rect opacity="0.82" x="70.738" y="253.13" width="8.04468" height="2.01117" transform="rotate(-90 70.738 253.13)" fill="#E9BD31"/>
<rect opacity="0.93" x="111.655" y="221.922" width="8.13714" height="2.03429" transform="rotate(102 111.655 221.922)" fill="#E9BD31"/>
<rect opacity="0.71" x="180.312" y="253.13" width="6.38026" height="1.59506" transform="rotate(-127 180.312 253.13)" fill="#E9BD31"/>
<rect opacity="0.91" x="199.268" y="240.416" width="10.5413" height="2.63532" transform="rotate(1 199.268 240.416)" fill="#E9BD31"/>
<rect opacity="0.91" x="254.054" y="232.325" width="7.67481" height="1.9187" transform="rotate(39 254.054 232.325)" fill="#E9BD31"/>
<rect opacity="0.82" x="257.985" y="213.831" width="10.8187" height="2.70468" transform="rotate(96 257.985 213.831)" fill="#E9BD31"/>
<rect opacity="0.72" x="308.148" y="232.325" width="6.65766" height="1.66442" transform="rotate(140 308.148 232.325)" fill="#E9BD31"/>
<ellipse cx="168.061" cy="131.633" rx="82.7865" ry="85.1581" transform="rotate(-23.7347 168.061 131.633)" fill="#EFD78B"/>
<path d="M171 78.4375C175.25 78.4375 179.083 79.0417 182.5 80.25C185.958 81.4583 188.896 83.1458 191.312 85.3125C193.771 87.4792 195.646 90.0208 196.938 92.9375C198.229 95.8125 198.875 98.9375 198.875 102.312C198.875 105.271 198.542 107.875 197.875 110.125C197.25 112.333 196.292 114.271 195 115.938C193.75 117.604 192.208 119.021 190.375 120.188C188.583 121.312 186.542 122.271 184.25 123.062C189.792 124.812 193.917 127.479 196.625 131.062C199.375 134.646 200.75 139.146 200.75 144.562C200.75 149.146 199.896 153.208 198.188 156.75C196.479 160.292 194.167 163.271 191.25 165.688C188.375 168.104 185.021 169.938 181.188 171.188C177.396 172.396 173.354 173 169.062 173C164.438 173 160.396 172.479 156.938 171.438C153.479 170.354 150.458 168.771 147.875 166.688C145.333 164.604 143.167 162.042 141.375 159C139.583 155.958 138.042 152.458 136.75 148.5L143.75 145.625C144.917 145.125 146.125 144.875 147.375 144.875C148.5 144.875 149.5 145.104 150.375 145.562C151.25 146.021 151.917 146.708 152.375 147.625C153.125 149.125 153.958 150.604 154.875 152.062C155.792 153.479 156.896 154.771 158.188 155.938C159.479 157.062 160.979 157.979 162.688 158.688C164.438 159.354 166.5 159.688 168.875 159.688C171.583 159.688 173.938 159.25 175.938 158.375C177.938 157.5 179.604 156.375 180.938 155C182.271 153.583 183.271 152.021 183.938 150.312C184.604 148.562 184.938 146.812 184.938 145.062C184.938 142.854 184.708 140.854 184.25 139.062C183.792 137.229 182.812 135.667 181.312 134.375C179.812 133.083 177.667 132.083 174.875 131.375C172.083 130.625 168.333 130.25 163.625 130.25V119C167.5 118.958 170.708 118.604 173.25 117.938C175.833 117.229 177.875 116.271 179.375 115.062C180.917 113.854 181.979 112.396 182.562 110.688C183.188 108.979 183.5 107.104 183.5 105.062C183.5 100.646 182.292 97.3333 179.875 95.125C177.5 92.875 174.25 91.75 170.125 91.75C166.333 91.75 163.208 92.75 160.75 94.75C158.292 96.7083 156.562 99.25 155.562 102.375C155.062 104 154.354 105.167 153.438 105.875C152.562 106.583 151.396 106.938 149.938 106.938C149.271 106.938 148.542 106.875 147.75 106.75L139.438 105.25C140.062 100.792 141.292 96.8958 143.125 93.5625C144.958 90.2292 147.25 87.4375 150 85.1875C152.792 82.9375 155.958 81.25 159.5 80.125C163.083 79 166.917 78.4375 171 78.4375Z" fill="#6750A4"/>
</g>
<defs>
<clipPath id="clip0_51_1798">
<rect width="335" height="277" fill="white"/>
</clipPath>
</defs>
</svg>
