<svg width="26" height="43" viewBox="0 0 26 43" fill="none" xmlns="http://www.w3.org/2000/svg">
<path d="M24.0069 28.9933C22.4887 28.1077 20.5908 28.8668 18.946 28.1077C18.1869 27.7281 17.3012 27.0955 16.5421 27.475C17.3012 26.5894 19.1991 28.1077 19.8317 27.0955C20.4643 27.0955 20.7173 28.1077 21.2234 27.9811C22.1091 27.3485 21.856 25.7037 21.2234 24.9446C19.7052 23.0468 15.5299 24.6915 14.7708 21.9081C16.036 22.9202 18.1869 23.9324 19.4521 22.4141C19.3256 22.9202 20.0847 23.2998 20.5908 23.0468C21.603 22.2876 21.3499 20.3898 20.5908 19.5041C19.4521 18.3654 17.1747 18.998 16.4156 17.7328C16.9217 18.1124 17.5543 18.1124 18.0604 17.8593C18.0604 18.4919 19.1991 18.4919 19.4521 17.9859C19.7052 17.4798 19.5786 16.7206 19.1991 16.2145C18.5665 15.3289 17.8073 14.5697 16.7951 14.1902C16.4156 14.0637 16.036 13.6841 16.2891 13.431C16.5421 13.178 16.9217 13.431 17.1747 13.431C17.5543 13.431 17.8073 12.925 18.3134 12.925C18.946 12.925 19.3256 13.6841 19.8317 13.8106C23.1213 12.1658 15.9095 8.49667 15.2769 6.59883C15.783 6.21927 16.5421 6.9784 17.1747 6.85188C17.8073 6.72536 18.0604 5.8397 17.8073 5.20709C16.5421 3.68882 14.3912 2.67664 13.5056 0.778799C13.379 0.525754 13.126 0.146186 12.8729 0.0196638C12.3669 -0.106859 11.8608 0.399231 11.7342 0.905321C11.6077 1.41141 11.7342 2.04402 11.6077 2.55011C11.2282 3.68882 9.96293 4.06838 9.20379 4.701C8.19161 5.20709 7.559 6.85188 9.20379 6.85188C9.8364 6.85188 10.3425 6.47231 10.9751 6.59883C10.216 7.99058 9.07727 9.12928 7.81205 10.0149C6.92639 10.521 5.91421 11.2802 6.04073 12.2923C6.16725 13.0515 7.05291 13.431 7.68552 13.0515C8.31814 14.4432 9.96293 13.0515 10.9751 12.925C10.0894 14.3167 8.19161 14.1902 6.92639 15.0758C5.15507 15.9615 5.91421 18.745 7.68552 17.6063C8.82423 17.9859 10.0894 17.8593 11.1016 17.2267C9.33031 19.1246 6.04073 18.2389 4.14289 19.7572C2.87767 20.7694 4.14289 23.1733 5.40812 21.7815C5.40812 22.9202 7.05291 23.2998 7.559 22.2876C8.06509 23.5528 9.33032 22.0346 9.96293 21.655C10.9751 21.1489 11.6077 22.4141 10.5955 22.7937C8.95075 23.6794 6.92639 23.2998 5.2816 23.9324C3.00419 24.4385 0.853309 29.7524 4.64898 27.475C5.15507 28.2342 6.4203 28.2342 7.05291 27.475C7.68552 27.8546 8.44466 27.8546 9.07727 27.475C6.79987 29.6259 2.75115 28.2342 0.220697 30.2585C-0.15887 30.6381 -0.032347 31.5238 0.473743 31.7768C1.10636 32.1564 1.99201 31.3972 2.62462 31.7768C3.38376 32.1564 3.00419 33.4216 3.76333 33.9277C4.39594 34.3073 5.02855 33.5481 5.53464 33.042C5.91421 34.3073 7.559 34.1807 8.19161 33.1686C9.33032 32.5359 10.5955 32.1564 11.8608 31.7768C11.8608 35.0664 11.8608 38.4825 11.8608 41.7721C11.8608 42.9108 13.6321 42.9108 13.6321 41.7721C13.6321 38.4825 13.6321 35.1929 13.6321 31.9033C14.1382 31.9033 14.6443 32.0299 15.0238 32.2829C15.5299 31.9033 16.1625 32.9155 16.7951 32.9155C17.1747 32.9155 17.6808 32.5359 18.0604 32.6625C18.3134 32.789 18.4399 33.1686 18.5665 33.5481C19.0725 34.6868 20.8439 34.4338 20.9704 33.1686C21.9826 35.0664 23.6274 32.6625 23.1213 31.2707C23.5008 32.0299 24.7661 31.9033 25.1456 31.0177C25.2721 30.3851 24.7661 29.4994 24.0069 28.9933Z" fill="#0C141A"/>
</svg>
