<svg width="359" height="111" viewBox="0 0 359 111" fill="none" xmlns="http://www.w3.org/2000/svg">
<rect width="359" height="110.689" rx="50" fill="#6750A4"/>
<mask id="mask0_51_1576" style="mask-type:alpha" maskUnits="userSpaceOnUse" x="24" y="0" width="304" height="101">
<rect x="24.6877" width="302.938" height="100.392" rx="50" fill="#6750A4"/>
</mask>
<g mask="url(#mask0_51_1576)">
<path opacity="0.3" d="M275.693 -16.57C283.311 -1.24308 276.983 24.9239 260.332 41.7029C243.692 58.4794 216.569 71.2996 190.205 74.8621C171.19 77.4265 153.421 75.4176 134.97 75.7172C116.519 76.0167 95.3349 79.3264 79.863 89.6565C71.882 94.9785 65.5909 102.038 56.0281 105.39C47.4373 108.407 38.2314 107.485 32.1085 104.423C25.9976 101.359 22.4792 96.4591 19.7139 91.4165C11.9303 77.2607 9.04975 61.1121 11.2898 44.2963C12.8634 32.4931 17.2777 19.8557 28.4864 8.87377C45.4938 -7.79965 73.8332 -16.9544 99.8297 -25.2268C123.191 -32.6635 146.606 -40.4297 170.395 -45.3591C194.183 -50.2974 218.69 -52.2727 238.991 -47.9157C259.304 -43.5702 274.776 -32.1388 275.693 -16.57Z" fill="url(#paint0_linear_51_1576)" fill-opacity="0.6"/>
</g>
<defs>
<linearGradient id="paint0_linear_51_1576" x1="278.746" y1="-5.23655" x2="7.91613" y2="9.65165" gradientUnits="userSpaceOnUse">
<stop offset="0.1031" stop-color="white"/>
<stop offset="0.9948" stop-color="#6750A4"/>
</linearGradient>
</defs>
</svg>
