<svg width="21" height="26" viewBox="0 0 21 26" fill="none" xmlns="http://www.w3.org/2000/svg">
<path d="M0.555209 5.0143C1.63435 2.69947 3.30377 4.88331 4.70181 5.14525C5.96888 5.38283 7.38579 6.93928 8.41498 5.70571C9.38812 4.53916 8.9279 2.87304 7.62976 1.6943C7.00994 1.12778 6.81347 0.0160291 7.79027 0.000799914C10.4496 -0.0357501 12.854 1.15522 15.1776 2.34005C17.2147 3.38477 14.5898 4.70359 15.2849 5.89147C16.9028 6.77476 19.6501 5.92193 20.1771 8.78501C18.5756 9.46118 16.2236 8.70586 16.1831 11.4166C13.7546 9.57392 10.2212 10.052 9.43594 12.3334C8.56849 10.2196 7.12415 9.75665 5.41209 11.24C3.80328 12.635 2.33397 12.4187 1.18691 10.981C-0.213263 9.22055 -0.308589 6.86312 0.555209 5.0143Z" fill="#39393A"/>
<path d="M9.43576 12.3333C10.221 10.052 13.7545 9.57386 16.1829 11.4166C16.885 13.5974 16.51 15.5314 15.0812 17.362C13.7045 19.1255 12.5565 21.0658 11.1905 22.8354C10.5219 23.7035 10.2992 25.5979 8.68953 24.8974C7.52724 24.3948 7.71761 22.9176 7.54857 21.6444C7.10357 18.2453 10.3078 15.7111 9.43576 12.3333" fill="#2D2B2C"/>
</svg>
