<svg width="23" height="34" viewBox="0 0 23 34" fill="none" xmlns="http://www.w3.org/2000/svg">
<path d="M0.563635 17.7845C1.20935 16.4839 2.48553 17.7388 3.50893 17.8484C5.22069 18.0342 6.88676 19.6668 8.68685 18.1286C11.2728 19.3104 13.88 20.3887 16.8284 19.7643C18.6772 20.5745 21.0347 20.5927 22.1738 23.206C19.1371 22.9471 18.5066 23.9431 20.0844 26.2915C20.8428 27.4245 21.4215 28.7129 21.8814 30.0043C22.2378 30.9912 23.0266 32.2644 21.918 33.0959C21.0347 33.7568 20.0021 32.9527 19.1645 32.4227C16.2801 30.6074 13.5785 28.6063 11.9368 25.4813C10.56 22.8619 8.75996 21.6557 5.92125 23.6903C3.23482 25.6153 1.63576 23.2974 0.362599 21.7044C-0.270934 20.9125 0.00929311 18.8993 0.563635 17.7845Z" fill="#383737"/>
<path d="M8.68079 3.8147e-05C10.0331 0.365538 10.1641 1.5047 10.688 2.30575C14.1602 7.62073 15.3786 13.7337 16.8284 19.7645C13.88 20.3889 11.2728 19.3106 8.68685 18.1288C6.94768 12.095 6.01873 6.06429 8.68079 3.8147e-05Z" fill="#2D2B2B"/>
</svg>
