<svg width="15" height="22" viewBox="0 0 15 22" fill="none" xmlns="http://www.w3.org/2000/svg">
<path d="M13.368 21.9421C15.3113 18.278 14.5924 15.1774 13.9924 12.1529C13.8035 11.1995 12.7741 10.4076 14.5467 10.0664C14.6838 10.0421 14.7234 9.50294 14.8087 9.20444C10.5811 8.95773 11.2298 3.49357 7.58398 2.49149C6.12198 2.08944 4.83968 1.02639 3.00913 -5.53131e-05C3.7249 2.8082 5.5798 4.55653 5.81128 6.94751C4.44979 7.68155 3.08222 7.39219 1.739 7.24294C1.05065 7.1668 0.0699028 6.55158 0.00289447 7.73641C-0.0519305 8.69584 0.679069 10.1609 1.60196 9.88373C8.19314 7.91917 8.93327 13.2707 10.9191 17.0901C11.6562 18.5095 12.3598 19.9471 13.368 21.9421" fill="#323131"/>
</svg>
