<svg width="22" height="20" viewBox="0 0 22 20" fill="none" xmlns="http://www.w3.org/2000/svg">
<path d="M9.91415 19.3959C14.2605 19.4294 16.6972 15.7104 20.5989 15.3175C22.0853 15.1682 20.9888 13.6605 20.1024 13.4138C16.9866 12.5427 15.7865 10.703 16.5388 7.52317C16.88 6.07335 15.8535 5.31494 14.8271 4.48038C11.4949 1.76045 7.42265 1.09647 3.20722 -2.67029e-05C4.27326 2.01022 5.89059 3.22248 7.47138 4.20629C9.94764 5.74748 10.0786 8.22372 9.35674 10.1213C8.41557 12.5914 5.64998 11.4888 3.59404 11.4858C2.51277 11.4828 1.57769 9.57609 0.344126 11.2087C-0.344232 12.1194 0.106553 12.8199 0.764453 13.5083C1.91882 14.7114 3.08536 16.0972 4.90068 14.7601C7.14241 13.1123 9.10091 14.2849 10.7122 15.5276C12.1802 16.6637 10.4472 17.9217 9.91415 19.3959" fill="#363535"/>
</svg>
