<svg width="359" height="92" viewBox="0 0 359 92" fill="none" xmlns="http://www.w3.org/2000/svg">
<path d="M0 71.1115C27.248 59.8724 55.0291 52.0172 85.0793 55.6204C92.0786 56.4611 99.0505 53.5158 105.337 50.2263C123.378 40.7781 142.326 37.4277 162.446 40.8086C166.427 41.4787 170.594 42.3436 172.851 37.4673C177.063 35.4875 181.273 33.5046 185.482 31.5218C194.065 27.1571 201.162 31.0193 207.08 36.52C214.402 43.3275 219.757 41.6126 226.138 35.189C232.756 28.5308 238.212 20.3892 247.319 16.5028C256.63 8.24551 268.216 4.72758 279.781 1.50813C291.316 -1.70218 301.961 -0.240196 309.673 10.3228C311.263 19.375 311.796 28.2079 307.97 37.0804C306.423 40.6654 300.56 46.7296 305.707 48.3378C311.735 50.2201 316.809 58.721 324.844 53.1502C327.305 51.4445 330.171 50.2537 332.974 49.1298C340.15 46.2514 347.913 43.8575 354.696 48.6455C361.601 53.5158 357.008 60.442 355.915 66.686C354.766 73.2376 357.471 80.9344 349.79 85.3112C336.708 91.6496 323.486 87.9185 310.285 85.8564C303.207 86.0361 296.125 86.2128 289.047 86.3895C274.844 91.5339 260.644 92.9928 246.46 86.3316C235.364 83.0665 224.271 79.9414 213.044 85.8442C177.493 92.7705 141.942 94.0101 106.391 85.8503L106.619 85.9843C74.4859 77.9708 41.8893 74.3919 8.75982 75.4367C5.54951 75.5372 0.271079 77.8123 0 71.1115Z" fill="#C8DCC9"/>
</svg>
