<svg width="798" height="200" viewBox="0 0 798 200" fill="none" xmlns="http://www.w3.org/2000/svg">
<path d="M797.986 61.4038C797.986 71.5452 797.986 81.6844 797.986 91.8258C795.18 94.4747 791.699 95.2961 788.003 95.4199C750.401 96.6846 712.924 100.029 675.4 102.45C640.402 104.705 605.38 106.848 570.427 109.927C546.293 112.052 522.075 113.508 497.892 114.579C474.278 115.624 451.496 122.33 427.935 123.013C426.218 123.063 424.527 123.441 423.917 123.189C472.448 118.426 522.164 120.281 571.789 120.953C631.84 121.765 691.708 126.955 751.37 134.054C755.345 134.527 759.237 135.351 762.661 137.62C767.275 141.787 766.59 144.949 760.638 146.533C757.548 147.357 754.467 148.287 751.323 148.934C722.495 151.247 693.636 153.015 664.742 154.473C632.614 156.094 600.492 158.041 568.38 160.038C538.075 161.922 507.725 163.274 477.412 165.147C440.968 167.396 404.49 169.041 368.029 170.951C337.696 172.54 307.37 174.226 277.05 176.03C243.127 178.044 209.126 178.761 175.275 181.966C161.94 183.229 148.539 182.955 135.175 183.67C104.249 185.321 74.4394 193.166 44.1043 198.036C38.8153 198.885 33.4827 200.965 28.3197 197.592C25.6708 196.456 23.2283 194.887 20.6142 193.65C2.46531 185.056 -3.81031 170.219 2.22628 150.701C3.61049 146.223 6.29196 144.084 10.9096 144.262C12.3568 144.317 13.7801 144.558 15.2078 144.786C36.3446 148.15 36.2359 148.124 40.6406 126.75C44.0631 110.14 46.4946 93.2882 52.1444 77.1884C57.6573 67.914 63.4549 72.3491 69.2655 76.8255C75.5629 88.9313 75.5694 102.628 78.8811 115.503C79.5981 118.295 79.3048 121.385 80.4456 124.006C81.9841 127.546 81.2475 133.849 87.6274 132.7C93.9008 131.568 97.0234 127.541 94.2616 120.805C93.6727 116.137 97.0017 110.948 91.4323 106.863C89.4201 105.39 90.9651 102.373 93.6314 101.209C93.9247 101.117 94.2681 101.02 94.6136 100.928C94.9591 100.835 95.3046 100.75 95.6501 100.661C94.3332 98.9706 92.3319 98.0775 90.8738 96.5498C88.7986 94.3768 87.2188 91.9692 88.7269 88.8966C90.1654 85.9717 93.0729 86.2846 95.3002 87.1365C103.501 90.2677 105.261 85.4263 106.322 78.979C107.082 74.357 108.462 69.8828 112.897 67.1731C130.481 62.2773 148.669 61.8275 166.625 60.2499C217.093 55.8127 267.419 49.9825 317.874 45.5083C380.226 39.978 442.461 33.3025 504.765 27.3267C576.431 20.4535 648.138 14.0259 719.723 6.33127C742.024 3.93228 764.382 2.05043 786.736 0.162094C790.793 -0.181244 794.717 -0.242065 797.986 2.73277C797.986 18.6674 797.986 34.6042 797.986 50.5388C795.973 54.5784 792.201 55.4433 788.218 56.2429C773.352 59.2373 758.53 62.499 747.718 61.9101C757.159 61.5537 771.01 60.2521 784.815 58.2529C789.457 57.5793 794.198 57.8553 797.986 61.4038Z" fill="#F4F6EE"/>
</svg>
