<svg width="398" height="83" viewBox="0 0 398 83" fill="none" xmlns="http://www.w3.org/2000/svg">
<path d="M12.0548 68.8789C8.24987 66.8211 4.44712 64.7611 0.642192 62.7032C-1.11359 59.0005 0.970304 58.8353 3.99947 58.3898C62.0099 49.8391 119.999 41.121 178 32.5029C246.5 22.3267 314.658 9.16269 383.486 0.346825C387.417 -0.15731 391.895 -0.489815 394.842 2.15907C398.723 5.64674 397.3 12.4939 393.366 15.9251C389.435 19.3562 383.981 20.2971 378.827 21.1229C293.067 34.9062 212.597 60.8627 129.234 81.0064C124.773 82.0864 120.212 84.0942 115.924 80.4371C112.237 80.2437 111.172 75.1719 107.1 75.6956C99.7114 74.3636 91.817 74.6135 85.8369 68.8855C84.2397 68.3053 82.6404 67.7272 81.0432 67.1492C69.0743 74.9568 55.0911 77.3927 41.8727 81.8908C31.238 79.1572 21.34 74.7221 12.0548 68.8789Z" fill="#F5F7F2"/>
</svg>
