<svg width="590" height="97" viewBox="0 0 590 97" fill="none" xmlns="http://www.w3.org/2000/svg">
<path d="M589.658 69.4965C562.937 80.1174 533.822 88.1432 506.824 86.4284C464.201 83.7176 424.023 98.7884 382.03 96.0167C365.308 94.9141 348.642 94.174 332.167 90.9454C310.764 86.7544 289.723 76.8706 267.394 86.6935C228.685 76.0148 189.253 93.2297 150.553 83.7085C134.553 79.7732 118.904 80.0657 102.527 82.5755C71.5521 87.3239 40.9747 78.9417 10.1868 76.7304C7.51924 76.5385 5.00887 74.1476 0 71.4917C18.551 60.6942 37.3532 53.305 55.5615 57.4991C86.0923 64.5289 106.998 53.905 131.331 36.0351C197.638 -12.6617 283.735 -11.0931 352.263 35.2341C357.706 38.9134 362.199 40.5125 368.918 39.0291C378.323 36.9519 389.291 35.6695 397.098 41.4109C410.566 51.3129 419.546 46.0741 431.077 37.7376C447.646 25.7614 467.405 26.066 486.74 30.2997C494.586 32.0176 502.822 34.3569 509.489 38.6028C530.88 52.2115 552.307 64.8821 578.849 64.7938C582.659 64.7816 586.945 65.8202 589.658 69.4965Z" fill="#C8DCC9"/>
</svg>
