<svg width="500" height="190" viewBox="0 0 500 190" fill="none" xmlns="http://www.w3.org/2000/svg">
<path d="M0 168.179C38.5633 162.541 75.162 151.576 110.768 136.78C119.933 132.969 129.886 132.223 138.832 136.99C147.644 141.687 156.425 139.32 163.077 135.382C171.042 130.664 177.849 127.329 187.039 130.253C193.916 132.442 193.088 126.805 192.993 123.089C191.647 69.4242 246.594 43.6443 287.027 67.9409C292.765 71.3888 295.705 71.1848 297.685 63.9204C300.587 53.2478 308.838 47.6617 319.41 48.6943C329.041 49.6385 330.838 44.8839 333.36 37.4277C340.655 15.8754 355.799 2.34892 378.765 0.259476C402.409 -1.89088 419.615 9.45175 431.394 29.5268C433.803 33.6357 434.074 38.174 441.612 38.1313C463.283 38.0125 474.273 51.5787 472.46 73.4112C470.986 91.2141 459.248 103.492 447.399 118.794C455.395 118.386 461.078 117.905 466.765 117.841C486.87 117.609 500.037 129.592 499.571 147.522C499.041 167.725 485.116 182.964 466.101 180.289C443.735 177.143 421.479 183.533 399.367 178.864C394.454 177.822 390.619 180.847 386.431 182.44C362.019 191.705 337.886 192.022 314.199 180.107C310.023 178.008 306.057 176.041 301.227 177.728C278.84 185.556 255.981 182.824 233.445 179.495C213.26 176.513 193.7 177.825 173.765 181.31C160.232 183.676 146.632 179.223 133.063 177.74C97.3052 173.832 61.7512 167.421 25.5028 169.395C17.0475 169.854 8.50397 168.627 0 168.179" fill="#C8DCC9"/>
</svg>
