<svg width="218" height="840" viewBox="0 0 218 840" fill="none" xmlns="http://www.w3.org/2000/svg">
<path d="M60.5865 259.431L118.983 246.751L141.165 268.258C141.165 268.258 162.441 251.511 138.449 237.924C146.824 219.138 128.941 208.498 112.871 218.471C108.572 201.484 68.7332 208.044 77.7878 236.338C61.9438 241.098 53.5691 246.524 60.5865 259.431Z" fill="#171D15"/>
<path d="M142.069 270.071C142.069 270.071 143.428 251.284 127.81 254.684C118.302 235.217 86.6158 236.577 87.9745 258.297C75.2985 254.911 77.3345 273.911 77.3345 273.911C77.3345 273.911 58.7745 258.524 44.7411 277.084C30.7091 295.647 46.5531 303.115 46.5531 303.115C46.5531 303.115 30.2531 321.449 51.7558 325.976C80.0505 317.827 118.302 308.773 118.302 308.773L142.069 270.071" fill="#192217"/>
<path d="M94.5145 515.118C94.5145 515.118 78.8211 526.936 69.7145 510.66C48.4025 524.03 53.8292 509.498 53.8292 509.498C53.8292 509.498 33.0945 518.411 35.4171 504.848C-1.39219 506.399 -27.1602 464.936 50.9198 461.448C45.1078 443.623 59.8345 442.46 68.5505 450.792C69.3265 437.228 95.2905 439.554 97.2278 447.886C99.5505 463.386 109.821 495.742 109.821 495.742C109.821 495.742 123.962 507.174 94.5145 515.118" fill="#192217"/>
<path d="M102.46 839.548L108.796 56.8577L112.417 54.1376L121.923 836.834L102.46 839.548Z" fill="#382330"/>
<path d="M104.972 619.068C84.6238 600.269 71.0118 572.135 70.8785 571.853L73.9772 570.368C74.1105 570.644 87.4465 598.201 107.303 616.545L104.972 619.068Z" fill="#382330"/>
<path d="M87.5091 594.096L84.0798 593.855C84.0891 593.72 84.9771 580.328 81.4651 570.53L84.6985 569.37C88.4598 579.858 87.5504 593.519 87.5091 594.096Z" fill="#382330"/>
<path d="M90.0039 601.892C56.9932 600.903 47.0719 581.416 46.6652 580.587L49.7478 579.071C50.1238 579.823 59.2825 597.535 90.1105 598.457L90.0039 601.892Z" fill="#382330"/>
<path d="M117.803 606.535L116.184 603.504C116.376 603.4 135.567 592.903 141.299 571.824L144.611 572.726C138.48 595.27 118.644 606.084 117.803 606.535" fill="#382330"/>
<path d="M132.81 592.787L132.638 592.785L132.733 589.351C133.509 589.371 151.592 589.66 155.829 573.958L159.146 574.852C154.438 592.311 134.868 592.787 132.81 592.787Z" fill="#382330"/>
<path d="M108.42 220.964C93.8345 207.497 84.0798 187.324 83.9825 187.124L86.2038 186.057C86.2985 186.257 95.8598 206.017 110.094 219.164L108.42 220.964Z" fill="#382330"/>
<path d="M95.9052 203.071L93.4465 202.897C93.4545 202.804 94.0918 193.204 91.5718 186.178L93.8892 185.351C96.5838 192.871 95.9332 202.657 95.9052 203.071Z" fill="#382330"/>
<path d="M97.6931 208.657C74.0291 207.951 66.9198 193.977 66.6292 193.391L68.8372 192.297C69.1078 192.844 75.6705 205.537 97.7665 206.204L97.6931 208.657" fill="#382330"/>
<path d="M112.444 137.271L111.282 135.097C111.42 135.017 125.176 127.498 129.285 112.378L131.66 113.031C127.266 129.191 113.045 136.937 112.444 137.271" fill="#382330"/>
<path d="M123.199 127.404H123.077L123.146 124.951C123.701 124.964 136.665 125.164 139.699 113.911L142.08 114.551C138.701 127.071 124.676 127.404 123.199 127.404" fill="#382330"/>
<path d="M141.017 489.738C141.017 489.738 175.31 510.08 168.141 495.935C199.914 510.274 200.692 503.88 200.302 500.199C199.914 496.518 184.027 487.606 184.027 487.606C184.027 487.606 198.17 470.94 178.41 461.835C182.285 437.811 168.138 430.254 148.572 433.16C151.092 414.366 122.996 431.416 113.501 449.047C96.4545 432.774 84.6345 444.591 84.0531 460.479C60.4145 455.054 31.1598 471.718 45.4985 480.436C16.0452 486.443 6.35982 499.035 59.4465 495.548C64.2905 508.53 77.6572 506.594 97.8078 491.674C97.8078 491.674 125.902 506.399 141.017 489.738" fill="#192C1C"/>
<path d="M133.069 419.792C133.069 419.792 109.624 454.862 95.0918 424.442C81.1438 437.811 73.7798 425.411 73.7798 425.411C73.7798 425.411 55.9571 433.935 53.4358 422.116C32.5118 440.523 24.5664 443.623 22.8238 441.686C21.0798 439.748 24.1784 427.543 35.2251 420.763C16.8157 407.006 19.7224 378.33 56.7304 380.074C63.5091 355.079 84.8237 354.111 99.5477 356.823C101.873 331.247 119.313 342.486 123.189 345.004C124.154 326.596 176.469 325.435 164.454 359.922C187.318 365.735 195.845 381.623 182.086 399.836C202.238 416.304 196.428 424.054 196.428 424.054L155.35 412.042C155.35 412.042 144.886 425.798 133.069 419.792" fill="#192C1C"/>
<path d="M122.22 407.972C122.22 407.972 106.526 417.271 100.52 405.066C73.9745 416.304 67.1932 401.771 67.1932 398.672C67.1932 395.574 75.7198 372.904 112.144 380.46C109.433 368.059 117.764 363.991 126.868 370.771C131.908 359.147 147.408 359.534 149.345 375.228C166.394 374.066 173.567 383.947 173.371 390.535C173.176 397.123 150.313 395.767 150.313 395.767C150.313 395.767 171.045 397.123 172.791 407.198C174.532 417.272 122.22 407.972 122.22 407.972" fill="#192217"/>
<path d="M126.699 191.004C126.699 191.004 110.668 214.991 100.73 194.191C91.1918 203.324 86.1545 194.844 86.1545 194.844C86.1545 194.844 73.9678 200.684 72.2438 192.591C57.9332 205.177 52.5012 207.297 51.3078 205.977C50.1158 204.657 52.2359 196.311 59.7905 191.671C47.1985 182.257 49.1892 162.657 74.4959 163.844C79.1345 146.751 93.7065 146.084 103.775 147.951C105.368 130.457 117.293 138.137 119.941 139.857C120.605 127.271 156.379 126.484 148.163 150.071C163.799 154.044 169.629 164.911 160.22 177.364C174.001 188.617 170.027 193.924 170.027 193.924L141.936 185.711C141.936 185.711 134.783 195.111 126.699 191.004Z" fill="#192C1C"/>
<path d="M113.624 182.924C113.624 182.924 102.892 189.284 98.7852 180.937C80.6318 188.617 75.9958 178.684 75.9958 176.564C75.9958 174.444 81.8238 158.937 106.736 164.111C104.878 155.631 110.577 152.844 116.802 157.484C120.248 149.537 130.848 149.804 132.173 160.537C143.832 159.737 148.738 166.497 148.602 171.004C148.469 175.497 132.835 174.577 132.835 174.577C132.835 174.577 147.015 175.497 148.204 182.391C149.397 189.284 113.624 182.924 113.624 182.924Z" fill="#192217"/>
<path d="M99.2305 359.594C98.3679 359.162 77.9572 348.791 68.1652 329.435L70.2092 328.403C79.6518 347.066 100.053 357.443 100.256 357.546L99.2305 359.594" fill="#382330"/>
<path d="M87.9772 352.487C85.3946 349.199 80.5999 325.498 80.0585 322.806L82.3052 322.355C84.2985 332.318 88.0892 348.92 89.7799 351.072L87.9772 352.487Z" fill="#382330"/>
<path d="M104.269 328.465C104.269 328.465 117.173 344.99 145.241 327.107C163.798 332.542 217.217 343.406 217.217 343.406C217.217 343.406 219.93 319.866 184.621 316.018C194.58 292.704 173.077 290.444 173.077 290.444C173.077 290.444 181.001 268.031 153.386 265.084C125.774 262.151 120.113 290.671 120.113 290.671C120.113 290.671 98.6104 279.804 94.0837 304.248C73.2584 285.911 53.7958 302.888 59.0038 319.186C46.0998 327.334 30.0291 347.931 31.1625 349.291C32.2931 350.648 65.1131 332.314 77.5611 329.598C84.5798 341.14 104.269 328.465 104.269 328.465" fill="#192C1C"/>
<path d="M27.4771 593.2C18.0144 591.428 33.8678 575.181 40.2638 574.213C29.7984 552.899 48.2064 540.111 66.8051 541.275C63.7064 525.193 82.1158 527.519 89.6678 532.363C97.2251 537.205 74.7505 490.317 119.701 509.499C124.545 483.924 158.066 499.038 146.441 520.544C167.753 511.436 176.084 522.481 169.302 538.563C184.998 536.624 193.332 552.512 183.061 562.199C180.348 565.493 197.397 566.073 192.748 580.799C190.618 582.349 188.678 583.513 160.004 570.144C163.49 579.443 146.634 585.644 135.4 573.825C128.808 584.675 104.204 592.813 95.0944 569.176C78.2411 586.419 73.2038 574.987 73.2038 574.987C73.2038 574.987 59.6385 589.907 61.9651 574.987C42.7851 593.975 30.5744 593.78 27.4771 593.2" fill="#192217"/>
<path d="M102.91 105.657C102.91 105.657 47.9171 104.137 76.6864 72.8173C52.2464 56.7773 84.8318 45.8306 84.8318 45.8306C84.8318 45.8306 78.4691 -0.502791 102.4 0.00387569C126.332 0.510542 123.022 52.9639 123.022 52.9639C123.022 52.9639 141.86 39.9772 150.009 57.0306C158.154 74.0972 134.477 78.1639 134.477 78.1639C134.477 78.1639 157.646 74.8572 159.428 92.9372C161.209 111.004 126.586 131.631 102.91 105.657Z" fill="#192217"/>
<path d="M83.7745 113.164C83.7745 113.164 73.0425 119.524 68.9331 111.177C50.7825 118.871 46.1438 108.924 46.1438 106.804C46.1438 104.684 51.9744 89.1772 76.8838 94.3506C75.0291 85.8706 80.7278 83.0839 86.9545 87.7239C90.3998 79.7772 100.998 80.0439 102.324 90.7773C113.982 89.9773 118.886 96.7373 118.753 101.244C118.621 105.751 102.985 104.817 102.985 104.817C102.985 104.817 117.165 105.751 118.356 112.631C119.548 119.524 83.7745 113.164 83.7745 113.164Z" fill="#192C1C"/>
</svg>
