<svg width="139" height="51" viewBox="0 0 139 51" fill="none" xmlns="http://www.w3.org/2000/svg">
<path d="M19.238 36.864C27.9952 32.4917 38.2078 32.2221 47.976 32.8413C47.7128 30.6278 49.2544 28.4985 51.2279 27.4665C53.2013 26.4366 55.516 26.2997 57.74 26.3777C61.2825 26.5019 64.806 27.1085 68.1843 28.1805C67.0975 24.6274 69.4753 20.7312 72.7377 18.9578C76.0001 17.1844 79.8922 17.0728 83.6032 17.2645C88.1335 17.4961 93.1355 18.3828 95.9072 21.9737C97.3415 16.7 101.743 12.6415 106.68 10.2995C108.925 9.23591 111.292 8.49874 113.706 7.90692C111.071 7.05605 108.31 6.47899 105.633 5.77133C99.1843 4.06116 92.9691 1.40532 86.377 0.381744C79.7848 -0.639726 72.4428 0.246976 67.5482 4.77725C65.956 6.25364 64.6607 8.07543 62.8326 9.24222C60.815 10.5312 58.3634 10.8913 55.9983 11.2451C45.3476 12.8332 32.595 16.8748 30.4825 27.4371C23.3028 26.8031 -4.05363 36.6703 0.510343 47.7506C1.3886 49.882 3.86328 50.4928 6.28953 50.596C8.6168 44.7536 13.5135 39.7199 19.238 36.864" fill="#4AB46D"/>
<path d="M123.969 23.7177C125.53 21.0303 125.094 17.7826 123.559 15.0194C122.621 13.3303 121.275 11.8202 119.717 10.7335C117.88 9.45294 115.833 8.59361 113.706 7.90701C111.292 8.49883 108.925 9.236 106.68 10.2996C101.743 12.6416 97.3415 16.7001 95.9072 21.9738C93.1356 18.3829 88.1335 17.4962 83.6032 17.2646C79.8922 17.0729 76.0001 17.1845 72.7377 18.9579C69.4754 20.7312 67.0975 24.6275 68.1843 28.1806C64.8061 27.1085 61.2826 26.502 57.7401 26.3778C55.516 26.2998 53.2013 26.4367 51.2279 27.4666C49.2544 28.4986 47.7128 30.6279 47.976 32.8414C38.2078 32.2222 27.9953 32.4918 19.238 36.8641C13.5136 39.72 8.61682 44.7537 6.28955 50.5961C6.88769 50.6234 7.4858 50.6256 8.05235 50.6024C50.7582 48.6605 95.9535 51.2532 138.061 44.2208C140.561 35.1203 133.363 24.6465 123.969 23.7177Z" fill="#3C9658"/>
</svg>
