<svg width="136" height="87" viewBox="0 0 136 87" fill="none" xmlns="http://www.w3.org/2000/svg">
<path d="M103.455 5.19279C93.8952 -2.47771 79.721 -0.302078 68.4195 3.14775C62.3307 5.00535 55.391 9.84731 56.9538 16.0204C40.2796 18.3413 25.6588 31.5509 21.6614 47.9008C15.2061 48.7959 9.88819 53.741 6.83431 59.497C5.80863 61.4241 5.01255 63.4439 4.34491 65.5143C13.9278 59.9457 25.541 57.8332 36.4275 60.0004C34.0286 52.6564 36.9792 43.5516 43.8768 40.0765C50.7743 36.5972 60.6879 40.5967 62.2043 48.1682C60.8564 42.6923 66.246 37.168 71.8862 37.0458C77.5264 36.9236 82.6042 40.9548 85.3443 45.8852C87.4188 37.6629 98.3369 33.1663 105.599 37.5428C108.992 32.604 113.975 29.0467 119.523 26.6752C115.795 18.4403 110.268 10.6603 103.455 5.19279Z" fill="#7AAF2B"/>
<path d="M105.599 37.5428C98.3369 33.1663 87.4188 37.6629 85.3443 45.8852C82.6042 40.9548 77.5264 36.9237 71.8862 37.0458C66.246 37.168 60.8564 42.6924 62.2043 48.1683C60.6879 40.5968 50.7743 36.5972 43.8768 40.0765C36.9792 43.5516 34.0286 52.6564 36.4275 60.0005C25.541 57.8333 13.9278 59.9457 4.34491 65.5143C3.02016 69.6254 2.24299 73.9451 1.49742 78.2142C0.998274 81.0806 0.499151 83.9513 0 86.8199C43.9569 80.4783 88.6215 79.044 132.896 82.5486C137.25 73.1237 136.523 61.5295 131.028 52.7217C129.227 49.8321 126.951 47.2268 125.495 44.1477C124.27 41.5487 123.676 38.7033 122.911 35.9338C122.058 32.8441 120.904 29.7313 119.523 26.6753C113.975 29.0468 108.992 32.604 105.599 37.5428Z" fill="#507C2C"/>
</svg>
