<svg width="168" height="106" viewBox="0 0 168 106" fill="none" xmlns="http://www.w3.org/2000/svg">
<path d="M40.4969 76.3017C36.7628 74.0692 34.8737 69.1577 36.15 64.9981C37.4263 60.8406 41.748 57.8352 46.0888 58.0837C40.8929 48.7051 45.777 35.2512 55.7811 31.3949C61.1686 29.3162 68.6579 30.7736 70.4692 36.2601C72.9249 28.7159 81.1683 22.9072 88.8409 24.9207C96.5156 26.932 100.507 38.0987 94.7633 43.5683C99.1041 40.4302 104.843 37.2963 110.281 36.8034C113.101 36.5465 116.168 37.3173 118.009 39.4677C117.482 34.0086 122.002 29.4994 126.233 26.0095C128.019 24.5352 129.872 23.0694 131.785 21.671C129.742 11.1467 118.514 2.94329 107.508 3.71203C104.681 3.91 101.836 4.5734 99.0409 4.09953C96.8063 3.72253 94.7655 2.63791 92.6552 1.81863C82.4426 -2.14299 69.9975 0.521224 62.3059 8.31599C59.5237 11.134 57.3144 14.5523 54.1109 16.8795C40.4296 26.8057 20.6131 22.7619 20.7858 46.3063C20.7942 47.4415 12.3676 54.2864 11.1902 55.8238C8.13847 59.8128 5.68067 64.2652 3.91363 68.9639C3.04169 71.2849 1.64952 75.5456 0.781799 80.0295C1.42838 79.6146 2.08552 79.2123 2.75737 78.8332C14.1031 72.4074 28.393 71.4492 40.4969 76.3017Z" fill="#72AD2D"/>
<path d="M162.903 73.903C161.648 73.1111 160.066 72.5866 159.417 71.2513C158.53 69.4232 159.92 67.3845 160.944 65.6301C164.708 59.1559 163.404 50.1627 157.96 45.0217C156.108 43.2757 153.84 41.9299 152.357 39.8596C151.224 38.28 150.632 36.3845 149.742 34.6574C146.523 28.417 139.028 24.6955 132.111 25.9002C132.179 24.4596 132.052 23.0464 131.785 21.6711C129.872 23.0696 128.019 24.5354 126.233 26.0097C122.002 29.4995 117.482 34.0088 118.009 39.4678C116.168 37.3175 113.101 36.5466 110.281 36.8036C104.843 37.2964 99.1041 40.4303 94.7633 43.5685C100.507 38.0989 96.5156 26.9322 88.8409 24.9208C81.1683 22.9074 72.9249 28.7161 70.4692 36.2602C68.6579 30.7738 61.1686 29.3163 55.7811 31.3951C45.777 35.2514 40.8929 48.7053 46.0887 58.0838C41.748 57.8353 37.4263 60.8408 36.15 64.9983C34.8736 69.1579 36.7628 74.0693 40.4969 76.3018C28.393 71.4493 14.103 72.4076 2.75736 78.8334C2.0855 79.2125 1.42836 79.6147 0.781785 80.0296C-0.370264 85.9794 -0.597744 92.3231 2.55302 95.0632C3.70928 96.0657 5.35206 96.2279 6.879 96.3332C41.43 98.7615 76.0926 98.6773 110.669 100.579C119.618 101.072 128.562 101.687 137.484 102.521C142.711 103.007 158.246 107.641 162.65 105.151C168.484 101.858 169.116 77.8246 162.903 73.903Z" fill="#3A5824"/>
</svg>
