<svg width="136" height="38" viewBox="0 0 136 38" fill="none" xmlns="http://www.w3.org/2000/svg">
<path d="M17.3966 29.9415C22.0975 26.5864 29.4857 26.2473 33.0598 30.7818C36.0863 24.9858 42.0319 20.8114 48.5125 19.9332C54.993 19.057 61.8337 21.5001 66.2923 26.2852C70.1887 19.7246 79.86 17.4753 86.25 21.6454C85.9572 13.6674 89.4745 5.63257 95.5338 0.434654L95.7907 0.24091C88.6889 -0.723698 81.151 1.22024 75.6604 5.86003C74.4136 6.91309 73.1667 8.14098 71.5576 8.40425C70.3508 8.60433 69.1335 8.2273 67.9562 7.90085C55.8018 4.55633 48.4893 8.63379 38.8116 11.8035C36.8361 12.448 34.7637 13.0567 32.5312 13.5579C30.84 13.9349 29.0982 14.0107 27.388 14.2824C16.6384 15.9821 5.19159 26.1399 0 35.3711C3.89633 35.6912 7.79899 35.9208 11.7016 36.163C13.2517 33.7641 15.0757 31.5969 17.3966 29.9415Z" fill="#4BB27C"/>
<path d="M135.251 30.9881C134.284 20.4807 126.433 10.94 116.304 7.97242C113.992 7.29425 111.574 6.9278 109.379 5.93371C107.768 5.20288 106.326 4.15611 104.792 3.26943C102.025 1.66878 98.9499 0.670502 95.7907 0.240852L95.5338 0.434601C89.4745 5.63251 85.9572 13.6674 86.25 21.6454C79.86 17.4752 70.1887 19.7246 66.2924 26.2852C61.8337 21.5 54.993 19.057 48.5125 19.9331C42.0319 20.8114 36.0863 24.9857 33.0598 30.7818C29.4857 26.2473 22.0975 26.5864 17.3966 29.9414C15.0757 31.5968 13.2518 33.764 11.7017 36.1629C52.9185 38.7218 94.3986 37.0222 135.251 30.9881Z" fill="#337E4C"/>
</svg>
