<svg width="175" height="54" viewBox="0 0 175 54" fill="none" xmlns="http://www.w3.org/2000/svg">
<path d="M170.573 24.5729C166.154 18.5431 159.402 14.7079 152.679 11.4434C142.909 6.7025 130.771 3.88868 119.741 1.82047C116.502 2.65239 113.324 3.71601 110.262 5.05971C103.876 7.85664 97.1764 13.2736 98.0063 20.1943C91.8964 17.7259 85.3927 15.2091 78.8953 16.3043C72.3979 17.4016 66.3049 23.6568 67.9308 30.0425C64.5884 27.0392 59.1061 26.7717 55.4878 29.4381C51.8695 32.1044 50.5026 37.4203 52.3855 41.502C49.5759 36.0766 45.4374 30.8323 39.5782 29.099C33.719 27.3656 26.1769 30.7565 25.4608 36.8264C19.6711 38.6461 15.4946 43.5828 13.5823 49.2988C63.3289 54.0671 113.505 54.3514 163.294 50.036C165.082 49.8801 166.914 49.7074 168.532 48.9282C170.065 48.1889 171.312 46.94 172.27 45.531C176.478 39.3516 174.989 30.6007 170.573 24.5729Z" fill="#2F7D45"/>
<path d="M25.461 36.8265C26.177 30.7566 33.7191 27.3657 39.5783 29.0991C45.4375 30.8324 49.576 36.0767 52.3856 41.5021C50.5027 37.4204 51.8696 32.1045 55.4879 29.4382C59.1062 26.7718 64.5885 27.0393 67.9309 30.0426C66.305 23.6568 72.398 17.4017 78.8954 16.3044C85.3928 15.2092 91.8965 17.726 98.0064 20.1944C97.1766 13.2736 103.876 7.85673 110.262 5.0598C113.324 3.71609 116.502 2.65247 119.742 1.82055C118.335 1.55729 116.943 1.30247 115.582 1.06027C101.338 -1.46708 86.2584 0.527416 73.2973 7.00585C71.4839 7.91359 69.6537 8.91822 67.6382 9.12041C65.968 9.2889 64.3042 8.88871 62.6487 8.61912C49.0263 6.3761 13.633 14.5437 14.7155 33.5346C7.3188 34.2191 0.842449 40.5606 0 47.9405C4.52185 48.4481 9.05212 48.863 13.5824 49.2989C15.4947 43.5829 19.6712 38.6462 25.461 36.8265Z" fill="#44AB66"/>
</svg>
