<svg width="107" height="58" viewBox="0 0 107 58" fill="none" xmlns="http://www.w3.org/2000/svg">
<path d="M0 57.4451H106.419L91.064 27.5332C91.064 27.5332 68.8306 0.267758 65.9186 0.00242449C63.0053 -0.261576 43.4133 21.1811 43.4133 21.1811L38.388 16.9451L16.9453 36.0024L0 57.4451" fill="#1C2530"/>
<path d="M19.52 57.4451H0L16.9453 36.0024L38.388 16.9451L43.4133 21.1811H43.4147V21.1798C43.4147 21.1798 43.4147 21.1798 43.416 21.1798V21.1785C43.416 21.1785 43.416 21.1785 43.4173 21.1785C43.4173 21.1771 43.4187 21.1758 43.42 21.1744L43.4213 21.1731C43.4226 21.1718 43.4226 21.1718 43.424 21.1705C43.424 21.1691 43.4253 21.1678 43.4266 21.1678C43.4293 21.1638 43.4333 21.1598 43.4373 21.1558C43.44 21.1531 43.4413 21.1504 43.444 21.1491C43.4453 21.1478 43.4453 21.1465 43.4467 21.1451C43.4493 21.1425 43.452 21.1398 43.4546 21.1371C43.4546 21.1358 43.456 21.1345 43.4573 21.1331C43.46 21.1305 43.4627 21.1278 43.4667 21.1238C43.468 21.1211 43.4707 21.1198 43.472 21.1171C43.4733 21.1171 43.4733 21.1158 43.4747 21.1158C43.476 21.1131 43.4773 21.1118 43.48 21.1091C43.48 21.1091 43.48 21.1078 43.4813 21.1078C43.4827 21.1064 43.484 21.1051 43.4853 21.1038C43.4893 21.0998 43.4933 21.0944 43.4973 21.0904C43.4987 21.0891 43.5013 21.0864 43.5027 21.0851C43.504 21.0824 43.5067 21.0798 43.508 21.0785C43.5093 21.0771 43.5093 21.0758 43.5107 21.0758C43.516 21.0691 43.5213 21.0638 43.528 21.0571C43.528 21.0571 43.5293 21.0558 43.5293 21.0544C43.5306 21.0544 43.532 21.0531 43.5333 21.0518C43.5387 21.0451 43.544 21.0384 43.5507 21.0318C43.5533 21.0291 43.5546 21.0278 43.5573 21.0251C43.5626 21.0185 43.5693 21.0118 43.5747 21.0051C43.576 21.0051 43.576 21.0051 43.576 21.0038C43.5813 20.9985 43.588 20.9918 43.5933 20.9851C43.5973 20.9811 43.6013 20.9771 43.6053 20.9731C43.6093 20.9678 43.6133 20.9638 43.6173 20.9585C43.6187 20.9585 43.6187 20.9571 43.62 20.9571C43.676 20.8944 43.744 20.8211 43.8227 20.7358C43.8267 20.7318 43.8307 20.7278 43.8333 20.7238C43.8747 20.6798 43.9173 20.6331 43.964 20.5824L43.9653 20.5811C44.0133 20.5291 44.064 20.4745 44.1173 20.4171C44.1213 20.4118 44.1266 20.4065 44.132 20.4011C44.5853 19.9091 45.2373 19.2065 46.0333 18.3558C46.04 18.3478 46.048 18.3398 46.056 18.3318C46.0627 18.3238 46.0693 18.3158 46.0773 18.3078C46.0787 18.3064 46.0814 18.3038 46.0827 18.3011C46.3667 17.9985 46.6693 17.6771 46.9867 17.3398C46.996 17.3291 47.0053 17.3198 47.0147 17.3091C47.0227 17.2998 47.032 17.2905 47.0413 17.2811C47.0453 17.2758 47.0506 17.2718 47.0546 17.2665C47.0573 17.2638 47.0586 17.2625 47.06 17.2611C47.0773 17.2425 47.096 17.2225 47.1133 17.2038C47.1307 17.1851 47.148 17.1678 47.1653 17.1491C47.176 17.1371 47.188 17.1251 47.1986 17.1131C47.2106 17.1011 47.2213 17.0891 47.2333 17.0771C52.3853 11.6104 61.3186 2.39311 64.812 0.398447L63.0053 11.9158L19.52 57.4451" fill="#2E4054"/>
</svg>
