<svg width="178" height="60" viewBox="0 0 178 60" fill="none" xmlns="http://www.w3.org/2000/svg">
<path d="M0 59.3359H177.628C177.628 59.3359 156.451 30.216 154.596 28.8933C152.741 27.5693 139.243 24.6573 139.243 24.6573C139.243 24.6573 109.063 0.833308 104.036 0.0373082C99.0053 -0.754692 62.74 11.4226 62.74 11.4226L51.8853 20.1559L32.296 23.332L0 59.3359Z" fill="#253545"/>
<path d="M29.3826 50.3347L50.0305 23.332L13.3799 44.4227L32.2958 23.332L51.8852 20.156L62.7398 11.4227C62.7398 11.4227 96.7598 1.36509e-05 103.471 1.36509e-05C103.688 1.36509e-05 103.877 0.0120501 104.036 0.0373834C104.393 0.0947168 104.893 0.28137 105.492 0.55737L76.2385 19.8907L29.3826 50.3347" fill="#344B61"/>
</svg>
